<?xml version="1.0" standalone="no"?>
<!DOCTYPE svg PUBLIC "-//W3C//DTD SVG 20010904//EN"
 "http://www.w3.org/TR/2001/REC-SVG-20010904/DTD/svg10.dtd">
<svg version="1.0" xmlns="http://www.w3.org/2000/svg"
 width="160.000000pt" height="160.000000pt" viewBox="0 0 160.000000 160.000000"
 preserveAspectRatio="xMidYMid meet">
<metadata>
Created by potrace 1.14, written by Peter Selinger 2001-2017
</metadata>
<g transform="translate(0.000000,160.000000) scale(0.100000,-0.100000)"
fill="#000000" stroke="none">
<path d="M4 1405 c1 -106 4 -191 8 -188 5 2 8 -3 8 -12 0 -9 -4 -14 -8 -11 -4
2 -7 -51 -7 -119 0 -68 3 -121 6 -119 4 2 9 -6 13 -19 9 -35 6 -44 -7 -20 -10
18 -12 -16 -12 -177 0 -109 4 -202 8 -206 4 -4 7 -14 7 -23 0 -12 -2 -13 -8
-4 -4 7 -8 -48 -7 -121 0 -74 3 -132 8 -129 4 2 7 -3 7 -12 0 -9 -3 -14 -7
-12 -5 3 -9 -48 -11 -114 l-2 -119 31 0 c21 0 28 4 23 13 -6 9 -4 9 7 1 8 -7
49 -12 92 -13 62 -1 77 1 71 11 -6 10 -4 10 7 2 22 -16 103 -18 93 -2 -5 10
-4 11 7 0 17 -16 43 -16 33 1 -6 9 -5 9 7 0 20 -16 252 -15 242 1 -5 7 -2 7 8
-1 19 -15 151 -15 142 1 -5 7 -2 7 8 -1 20 -16 532 -15 522 1 -4 6 0 5 9 -2
11 -8 46 -12 110 -11 l95 2 -1 31 c-1 25 3 31 21 32 15 1 20 -4 18 -15 -3 -19
22 -58 31 -48 4 4 2 12 -3 19 -6 7 -9 21 -8 30 2 10 -1 20 -6 24 -5 3 -9 11
-9 17 1 17 24 -25 25 -43 0 -8 6 -24 12 -35 9 -15 12 169 13 783 l1 802 -55 0
c-58 0 -63 -8 -32 -50 10 -13 9 -13 -7 -1 -15 12 -17 11 -15 -10 2 -13 8 -27
13 -31 6 -4 2 -8 -8 -8 -14 0 -17 5 -12 23 5 20 5 20 -10 -3 l-16 -25 7 25 c3
14 11 30 16 37 6 8 6 18 -2 30 -9 16 -10 15 -4 -6 4 -16 3 -21 -5 -17 -6 4
-11 15 -12 24 0 12 -3 11 -9 -5 -5 -13 -12 -23 -15 -23 -4 0 -3 10 0 23 4 15
3 18 -3 8 -8 -11 -11 -11 -16 0 -3 8 -3 3 0 -10 4 -16 3 -21 -5 -17 -6 4 -11
15 -12 24 0 12 -3 11 -9 -5 -5 -13 -12 -23 -15 -23 -4 0 -3 10 0 23 4 15 3 18
-3 8 -8 -11 -11 -11 -16 0 -3 8 -3 3 0 -10 4 -16 3 -21 -5 -17 -6 4 -11 15
-12 24 0 12 -3 11 -9 -5 -5 -13 -12 -23 -15 -23 -4 0 -3 10 0 23 4 15 3 18 -3
8 -8 -11 -11 -11 -16 0 -3 8 -3 3 0 -10 4 -16 3 -21 -5 -17 -6 4 -11 15 -12
24 0 12 -3 11 -9 -5 -5 -13 -12 -23 -15 -23 -4 0 -3 10 0 23 4 15 3 18 -3 8
-8 -11 -11 -11 -16 0 -3 8 -3 3 0 -10 4 -16 3 -21 -5 -17 -6 4 -11 15 -12 24
0 12 -3 11 -9 -5 -5 -13 -12 -23 -15 -23 -4 0 -3 10 0 23 4 15 3 18 -3 8 -8
-11 -11 -11 -16 0 -3 8 -3 3 0 -10 4 -16 3 -21 -5 -17 -6 4 -11 15 -12 24 0
12 -3 11 -9 -5 -5 -13 -12 -23 -15 -23 -4 0 -3 10 0 23 4 15 3 18 -3 8 -8 -11
-11 -11 -16 0 -3 8 -3 3 0 -10 4 -16 3 -21 -5 -17 -6 4 -11 15 -12 24 0 12 -3
11 -9 -5 -5 -13 -12 -23 -15 -23 -4 0 -3 10 0 23 4 15 3 18 -3 8 -8 -11 -11
-11 -16 0 -3 8 -3 3 0 -10 4 -16 3 -21 -5 -17 -6 4 -11 15 -12 24 0 12 -3 11
-9 -5 -5 -13 -12 -23 -15 -23 -4 0 -3 10 0 23 4 15 3 18 -3 8 -8 -11 -11 -11
-16 0 -3 8 -3 3 0 -10 4 -16 3 -21 -5 -17 -6 4 -11 15 -12 24 0 12 -3 11 -9
-5 -5 -13 -12 -23 -15 -23 -4 0 -3 10 0 23 4 15 3 18 -3 8 -8 -11 -11 -11 -16
0 -3 8 -3 3 0 -10 4 -16 3 -21 -5 -17 -6 4 -11 15 -12 24 0 12 -3 11 -9 -5 -5
-13 -12 -23 -15 -23 -4 0 -3 10 0 23 4 15 3 18 -3 8 -8 -11 -11 -11 -16 0 -3
8 -3 3 0 -10 4 -16 3 -21 -5 -17 -6 4 -11 15 -12 24 0 12 -3 11 -9 -5 -5 -13
-12 -23 -15 -23 -4 0 -3 10 0 23 4 15 3 18 -3 8 -8 -11 -11 -11 -16 0 -3 8 -3
3 0 -10 4 -16 3 -21 -5 -17 -6 4 -11 15 -12 24 0 12 -3 11 -9 -5 -5 -13 -12
-23 -15 -23 -4 0 -3 10 0 23 4 15 3 18 -3 8 -8 -11 -11 -11 -16 0 -3 8 -3 3 0
-10 4 -16 3 -21 -5 -17 -6 4 -11 15 -12 24 0 12 -3 11 -9 -5 -5 -13 -12 -23
-15 -23 -4 0 -3 10 0 23 4 15 3 18 -3 8 -8 -11 -11 -11 -16 0 -3 8 -3 3 0 -10
4 -16 3 -21 -5 -17 -6 4 -11 15 -12 24 0 12 -3 11 -9 -5 -5 -13 -12 -23 -15
-23 -4 0 -3 10 0 23 4 15 3 18 -3 8 -8 -11 -11 -11 -16 0 -3 8 -3 3 0 -10 4
-16 3 -21 -5 -17 -6 4 -11 15 -12 24 0 12 -3 11 -9 -5 -5 -13 -12 -23 -15 -23
-4 0 -3 10 0 23 4 15 3 18 -3 8 -8 -11 -11 -11 -16 0 -3 8 -3 3 0 -10 4 -16 3
-21 -5 -17 -6 4 -11 15 -12 24 0 12 -3 11 -9 -5 -5 -13 -12 -23 -15 -23 -4 0
-3 10 0 23 4 15 3 18 -3 8 -8 -11 -11 -11 -16 0 -3 8 -3 3 0 -10 4 -16 3 -21
-5 -17 -6 4 -11 15 -12 24 0 12 -3 11 -9 -5 -5 -13 -12 -23 -15 -23 -4 0 -3
10 0 23 4 15 3 18 -3 8 -8 -11 -11 -11 -16 0 -3 8 -3 3 0 -10 4 -16 3 -21 -5
-17 -6 4 -11 15 -12 24 0 12 -3 11 -9 -5 -5 -13 -12 -23 -15 -23 -4 0 -3 10 0
23 4 15 3 18 -3 8 -8 -11 -11 -11 -16 0 -3 8 -3 3 0 -10 4 -16 3 -21 -5 -17
-6 4 -11 15 -12 24 0 12 -3 11 -9 -5 -5 -13 -12 -23 -15 -23 -4 0 -3 10 0 23
4 15 3 18 -3 8 -8 -11 -11 -11 -16 0 -3 8 -3 3 0 -10 4 -16 3 -21 -5 -17 -6 4
-11 15 -12 24 0 12 -3 11 -9 -5 -5 -13 -12 -23 -15 -23 -4 0 -3 10 0 23 4 15
3 18 -3 8 -8 -11 -11 -11 -16 0 -3 8 -3 3 0 -10 4 -16 3 -21 -5 -17 -6 4 -11
15 -12 24 0 12 -3 11 -9 -5 -5 -13 -12 -23 -15 -23 -4 0 -3 10 0 23 4 15 3 18
-3 8 -8 -11 -11 -11 -16 0 -3 8 -3 3 0 -10 4 -16 3 -21 -5 -17 -6 4 -11 15
-12 24 0 12 -3 11 -9 -5 -5 -13 -12 -23 -15 -23 -4 0 -3 10 0 23 4 15 3 18 -3
8 -8 -11 -11 -11 -16 0 -3 8 -3 3 0 -10 4 -16 3 -21 -5 -17 -6 4 -11 15 -12
24 0 12 -3 11 -9 -5 -5 -13 -12 -23 -15 -23 -4 0 -4 10 0 23 5 18 4 19 -5 5
-6 -10 -7 -25 -1 -40 4 -13 5 -32 1 -43 -4 -11 -3 -26 2 -32 6 -7 7 -13 3 -13
-4 0 -2 -6 4 -14 8 -10 9 -16 1 -21 -5 -3 -10 -11 -10 -18 0 -8 3 -8 12 1 8 8
15 9 25 1 9 -8 13 -8 13 -1 0 6 -5 14 -10 17 -7 4 -7 13 0 24 6 12 5 22 -3 31
-10 12 -9 12 5 1 13 -9 15 -18 8 -30 -7 -13 0 -27 31 -61 22 -23 37 -45 34
-48 -2 -3 7 -18 20 -34 14 -16 22 -35 18 -41 -4 -7 -9 -3 -13 9 -6 15 -8 16
-12 4 -3 -8 -4 -5 -2 6 2 12 -3 27 -11 34 -8 7 -13 16 -10 20 3 5 1 11 -5 15
-15 9 -12 -31 3 -43 7 -6 12 -24 11 -39 -4 -48 -7 -49 -14 -8 -7 36 -7 34 -5
-15 3 -52 2 -53 -10 -26 -7 17 -9 42 -5 60 4 18 1 48 -6 71 -7 25 -13 32 -14
20 l-1 -20 -9 20 c-7 16 -9 17 -9 3 -1 -9 -6 -20 -12 -24 -8 -4 -9 1 -4 17 5
20 4 21 -5 9 -10 -13 -11 -13 -7 2 4 12 1 16 -13 13 -14 -3 -17 1 -13 13 4 15
3 15 -6 2 -8 -12 -10 -5 -8 27 1 22 6 39 11 35 5 -3 6 0 2 7 -4 6 -12 9 -17 6
-5 -4 -9 0 -9 7 0 9 -3 9 -10 -2 -9 -13 -10 -13 -10 0 0 12 -2 12 -9 2 -6 -10
-10 -10 -21 3 -10 12 -11 18 -1 28 10 9 11 8 6 -5 -4 -10 -3 -18 3 -18 14 0
23 28 11 36 -7 4 -7 10 0 18 7 9 7 17 -2 26 -6 8 -2 6 11 -4 22 -19 28 -28 15
-23 -5 1 -8 -2 -8 -8 0 -5 7 -10 16 -9 9 1 16 -5 16 -12 0 -9 -4 -11 -12 -4
-12 10 -25 4 -25 -13 0 -6 3 -7 6 -4 4 3 15 2 25 -4 17 -9 19 -6 19 26 0 24
-4 34 -11 29 -8 -5 -8 -1 0 14 15 29 16 28 -37 28 l-48 1 0 -192z m19 150 c-7
-21 -12 -19 -10 4 0 11 5 18 9 15 4 -3 5 -11 1 -19z m142 0 c6 -1 15 3 22 8
12 9 40 -29 29 -40 -3 -3 -10 5 -15 18 -8 19 -10 20 -10 5 -1 -15 -4 -16 -15
-7 -11 9 -16 9 -22 0 -5 -9 -9 -7 -14 7 -5 13 -8 7 -8 -19 0 -21 -3 -41 -6
-44 -6 -7 -6 68 1 80 2 4 10 4 16 0 7 -4 17 -8 22 -8z m99 -20 c-7 -18 -8 -18
-16 1 -8 18 -8 18 -4 -1 2 -11 5 -24 6 -30 5 -21 0 -78 -7 -71 -4 3 -6 26 -6
49 1 42 1 42 -6 7 -5 -29 -7 -32 -13 -14 -3 12 -2 28 3 35 5 8 6 22 3 33 -4
11 -2 16 4 12 6 -3 14 -1 17 5 11 17 27 -5 19 -26z m79 22 c4 3 7 -2 7 -12 0
-15 -3 -16 -12 -7 -8 8 -15 9 -25 1 -10 -9 -13 -8 -13 3 0 21 11 29 25 18 7
-5 15 -7 18 -3z m62 -2 c6 -1 16 3 22 8 18 13 29 -21 13 -36 -10 -10 -11 -7
-6 13 l7 25 -15 -25 c-14 -23 -15 -23 -17 -5 -1 19 -1 19 -6 1 -5 -18 -6 -18
-20 5 l-14 24 7 -24 c4 -17 3 -21 -6 -16 -9 6 -9 3 -1 -13 7 -14 8 -23 1 -27
-5 -3 -10 4 -11 17 -1 23 -1 23 -9 -2 -7 -20 -14 -13 -12 11 1 3 -5 6 -13 6
-9 0 -12 -10 -9 -30 4 -36 -12 -24 -19 13 -4 23 -4 22 -6 -5 -1 -23 -3 -27
-11 -15 -7 11 -9 7 -6 -15 6 -47 17 -69 27 -53 6 9 8 7 8 -7 1 -46 8 -75 20
-87 11 -11 13 -10 7 2 -4 8 -1 7 7 -3 8 -10 17 -14 19 -10 3 4 3 3 2 -4 -2 -7
1 -15 6 -18 6 -4 8 -19 5 -35 -3 -16 -1 -31 5 -35 5 -3 7 -11 4 -18 -6 -16
-54 -17 -54 -2 0 5 -5 2 -11 -8 -5 -9 -8 -21 -4 -26 3 -5 1 -12 -5 -16 -14 -8
-13 38 1 52 8 8 8 13 0 17 -6 4 -11 -1 -12 -11 0 -16 -1 -16 -9 2 -4 11 -6 31
-4 45 3 17 2 20 -3 9 -5 -9 -16 -15 -25 -13 -14 2 -16 -1 -8 -16 7 -13 7 -21
0 -25 -5 -3 -10 2 -10 11 0 25 -8 13 -14 -20 -6 -33 -16 -47 -16 -22 0 24 29
90 37 83 3 -4 12 -2 19 4 14 11 9 35 -13 60 -7 9 -11 18 -8 20 2 3 -13 27 -35
53 -45 54 -44 52 -30 61 6 4 10 3 9 -2 -3 -17 1 -33 9 -33 15 0 -2 73 -18 78
-13 5 -13 3 0 -14 14 -18 13 -18 -10 1 -14 11 -27 21 -29 22 -2 1 2 9 9 18 7
8 17 12 24 8 6 -4 15 -8 21 -8 5 0 10 -12 12 -26 1 -14 11 -41 22 -59 20 -33
20 -33 25 -9 3 13 8 40 10 59 2 19 7 44 12 54 7 18 8 18 16 -4 6 -17 11 -20
21 -11 10 8 17 7 25 -1 8 -8 14 -4 22 16 7 18 14 25 22 19 7 -4 18 -8 23 -8z
m105 -12 c0 -13 -3 -13 -15 -3 -14 12 -19 7 -16 -13 1 -5 -2 -6 -7 -3 -5 3 -7
-7 -5 -22 3 -20 2 -23 -6 -12 -5 8 -7 18 -4 24 3 5 1 6 -5 2 -6 -4 -9 -14 -6
-24 5 -14 3 -14 -10 2 -9 11 -16 14 -16 7 0 -7 -4 -9 -10 -6 -17 11 -11 22 12
21 14 -1 27 8 35 24 7 14 13 21 13 16 0 -6 5 -5 12 2 14 14 28 6 28 -15z m73
14 c10 10 8 -10 -3 -27 -8 -12 -10 -12 -11 5 0 19 -1 19 -8 1 -7 -18 -8 -18
-14 -2 -9 24 1 40 17 27 7 -6 16 -8 19 -4z m62 -2 c6 -1 15 3 22 8 12 9 40
-29 29 -40 -3 -3 -10 5 -15 18 -8 20 -10 21 -10 5 -1 -15 -4 -17 -13 -8 -8 8
-15 9 -25 1 -10 -9 -13 -7 -14 7 0 18 -1 18 -8 -1 -5 -11 -6 -24 -4 -28 3 -5
7 -21 8 -35 2 -15 7 -40 10 -57 6 -30 6 -30 -10 4 -8 18 -16 47 -16 65 -1 25
-3 23 -9 -14 -4 -24 -5 -51 -3 -60 2 -8 0 -26 -6 -40 -7 -19 -9 -7 -7 50 3 81
27 147 49 133 7 -4 17 -8 22 -8z m99 -20 c-7 -18 -8 -18 -16 1 -6 13 -7 10 -3
-11 4 -20 3 -25 -3 -16 -7 9 -9 6 -9 -14 0 -14 -6 -32 -12 -38 -10 -9 -11 -5
-5 18 4 16 7 42 7 57 0 15 4 25 8 22 4 -2 11 1 14 7 11 17 27 -5 19 -26z m79
22 c4 3 7 -2 7 -12 0 -15 -3 -16 -12 -7 -8 8 -15 9 -25 1 -10 -9 -13 -8 -13 3
0 21 11 29 25 18 7 -5 15 -7 18 -3z m62 -2 c6 -1 16 3 22 8 18 13 29 -21 13
-36 -10 -10 -11 -7 -6 13 l7 25 -15 -25 c-14 -23 -15 -23 -17 -5 -1 19 -1 19
-6 1 -5 -18 -6 -18 -20 5 -10 18 -13 19 -9 4 3 -11 1 -27 -4 -35 -8 -13 -10
-13 -10 -1 0 11 -4 10 -16 -5 -11 -13 -14 -14 -11 -3 3 9 -1 16 -8 16 -7 0
-11 -7 -8 -16 3 -11 0 -10 -11 3 -15 19 -16 19 -12 -11 2 -17 -1 -37 -5 -45
-6 -8 -9 3 -10 32 l-2 45 -7 -45 c-6 -38 -7 -40 -10 -15 -2 24 -4 26 -7 8 -2
-12 3 -36 12 -53 9 -18 14 -34 11 -37 -3 -3 -13 11 -22 31 -13 26 -20 33 -27
24 -14 -21 -4 4 28 65 26 51 30 55 37 36 6 -16 11 -19 21 -10 10 8 17 7 25 -1
8 -8 14 -4 22 16 7 18 14 25 22 19 7 -4 18 -8 23 -8z m105 -12 c0 -13 -3 -13
-15 -3 -14 12 -19 7 -16 -13 1 -5 -3 -6 -8 -3 -5 4 -7 -4 -3 -16 5 -21 4 -22
-11 -9 -18 14 -20 10 -18 -24 1 -18 1 -19 -9 -2 -6 9 -8 23 -5 30 4 6 -1 3 -9
-7 -16 -20 -16 -20 -16 1 0 15 6 20 22 19 14 -1 27 8 35 24 7 14 13 21 13 16
0 -6 5 -5 12 2 14 14 28 6 28 -15z m73 14 c10 10 8 -10 -3 -27 -8 -12 -10 -12
-11 5 0 19 -1 19 -8 1 -7 -18 -8 -18 -14 -2 -9 24 1 40 17 27 7 -6 16 -8 19
-4z m62 -2 c6 -1 15 3 22 8 12 9 40 -29 29 -40 -3 -3 -10 5 -15 18 -8 20 -10
21 -10 5 -1 -15 -4 -17 -13 -8 -8 8 -15 9 -25 1 -10 -9 -13 -7 -14 7 0 18 -1
18 -8 -1 -5 -11 -5 -26 -1 -34 7 -13 -3 -67 -15 -79 -3 -3 -3 14 -1 39 2 24 1
31 -1 14 -5 -26 -6 -27 -13 -10 -10 26 26 99 43 88 7 -4 17 -8 22 -8z m99 -20
c-7 -18 -8 -18 -15 1 -5 15 -8 11 -14 -18 -4 -21 -11 -35 -16 -32 -5 3 -5 13
1 24 5 10 7 26 3 36 -4 11 -3 15 5 10 6 -3 14 -1 17 5 11 17 27 -5 19 -26z
m79 22 c4 3 7 -2 7 -12 0 -15 -3 -16 -12 -7 -8 8 -15 9 -25 1 -10 -9 -13 -8
-13 3 0 21 11 29 25 18 7 -5 15 -7 18 -3z m62 -2 c6 -1 15 3 22 7 16 13 22 -2
17 -42 -2 -19 -4 -54 -5 -77 -3 -65 -14 -51 -15 18 -1 34 2 56 6 50 3 -7 7 2
7 20 0 31 0 31 -13 7 -12 -21 -13 -22 -15 -3 -1 19 -1 19 -6 1 -5 -18 -6 -18
-20 5 l-14 24 7 -24 c4 -17 3 -21 -6 -16 -8 5 -11 4 -6 -3 4 -7 -1 -10 -14 -7
-11 2 -18 0 -15 -5 3 -5 1 -11 -5 -15 -5 -3 -10 2 -11 12 0 16 -1 16 -9 -2 -8
-19 -11 -18 -14 4 0 5 -5 13 -9 18 -5 4 -7 1 -5 -7 2 -8 -3 -14 -10 -15 -15 0
-33 -26 -26 -36 2 -4 -1 -11 -7 -15 -9 -5 -10 0 -6 17 4 13 7 30 7 37 0 7 4
10 10 7 5 -3 15 6 22 20 12 26 12 26 20 5 6 -17 11 -20 21 -11 10 8 17 7 25
-1 8 -8 14 -4 22 16 7 18 14 25 22 19 7 -4 18 -8 23 -8z m93 -25 c-13 -38 -22
-39 -14 -2 l5 27 -13 -29 c-12 -26 -14 -26 -18 -8 -3 11 -2 26 3 33 5 8 9 10
9 5 0 -6 5 -5 12 2 19 19 28 4 16 -28z m-900 -16 c4 2 7 -44 8 -102 0 -75 -2
-98 -8 -77 -14 46 -16 98 -6 118 5 10 6 27 2 39 -6 21 -7 21 -20 -3 l-14 -24
2 24 c2 16 -2 25 -14 27 -10 1 -17 -1 -17 -4 5 -37 -2 -49 -30 -47 -27 2 -28
1 -15 -23 7 -14 10 -30 6 -36 -4 -7 -8 -3 -10 9 -2 11 -9 25 -14 32 -5 7 -7
16 -4 21 3 5 -1 9 -8 9 -8 0 -12 -7 -9 -16 4 -13 2 -12 -10 2 -14 17 -15 17
-21 0 -6 -15 -8 -15 -16 -3 -7 11 -11 7 -17 -20 -9 -45 -8 -59 5 -90 8 -19 11
-21 11 -7 1 10 6 15 11 12 6 -4 7 -11 4 -17 -4 -7 -2 -8 4 -4 8 5 12 -2 11
-21 0 -27 -1 -27 -10 -5 -5 13 -13 21 -18 17 -5 -3 -12 -1 -16 5 -4 6 -10 8
-14 6 -4 -3 -8 5 -8 17 -3 43 -10 73 -22 93 -11 17 -11 17 -6 -6 5 -21 4 -22
-5 -7 -14 22 -3 42 15 27 17 -14 27 1 19 27 -5 15 -4 15 5 3 20 -28 65 -13 54
18 -4 13 -2 12 10 -3 8 -11 20 -21 26 -21 6 -1 12 -2 14 -4 1 -1 10 -3 19 -5
21 -4 27 4 30 39 2 19 5 23 16 14 10 -9 14 -6 19 12 l6 23 14 -27 c8 -15 17
-25 21 -22z m481 1 c5 2 9 -5 9 -18 0 -36 21 -82 33 -70 17 17 27 69 17 88 -7
12 -7 16 0 11 6 -3 13 -2 17 4 4 6 12 7 18 3 7 -4 17 -8 22 -8 6 0 10 -7 11
-15 0 -8 6 -28 13 -44 9 -23 14 -27 24 -17 7 7 13 16 13 22 1 5 2 13 3 18 1 8
29 8 39 1 9 -8 29 -4 43 7 14 12 16 8 16 -34 l1 -48 -12 35 -13 34 -11 -46
c-7 -26 -12 -59 -13 -75 0 -24 -2 -25 -8 -8 -5 11 -2 42 5 69 7 28 11 52 9 55
-3 2 -5 -2 -5 -10 -1 -10 -5 -8 -15 5 -16 21 -20 13 -15 -29 2 -17 0 -18 -16
-5 -15 12 -16 12 -9 1 5 -9 4 -12 -3 -8 -6 5 -8 -1 -5 -15 4 -22 4 -22 -12 2
l-16 25 7 -24 c4 -17 3 -21 -6 -16 -6 4 -10 16 -7 26 3 11 1 16 -5 13 -6 -4
-8 2 -4 17 7 24 7 24 -8 -1 -10 -17 -15 -20 -16 -9 0 9 3 19 7 23 4 3 8 16 10
29 4 21 3 21 -13 2 -11 -14 -14 -15 -11 -4 3 9 0 16 -7 16 -12 0 -13 -5 -16
-74 -2 -29 -6 -40 -14 -36 -15 10 -37 13 -32 5 2 -4 0 -16 -5 -27 -7 -17 -8
-15 -7 10 2 37 -23 125 -30 106 -3 -11 -6 -11 -12 0 -14 21 -39 20 -35 -2 3
-12 0 -17 -7 -13 -7 5 -8 2 -3 -7 5 -8 5 -11 0 -7 -13 12 -34 -12 -28 -30 4
-10 2 -14 -3 -9 -5 5 -9 21 -9 37 0 21 3 26 12 18 9 -8 15 -4 22 13 5 13 6 29
3 34 -3 6 2 4 12 -4 15 -13 18 -12 23 9 l6 23 14 -27 c8 -15 18 -24 22 -21z
m-364 10 c6 0 10 -18 11 -40 1 -22 5 -48 9 -57 4 -10 4 -18 1 -18 -3 0 -13 16
-21 36 -17 40 -19 56 -6 35 6 -9 9 -5 9 13 0 25 -2 25 -15 9 -12 -14 -14 -15
-10 -2 3 9 0 16 -7 16 -16 0 -14 -54 2 -84 8 -14 9 -24 2 -28 -6 -4 -8 -10 -6
-14 3 -4 1 -13 -4 -21 -6 -10 -9 -1 -9 30 1 54 -6 104 -16 121 -5 7 -4 10 3 5
6 -3 13 -2 17 4 4 6 12 7 18 3 7 -4 17 -8 22 -8z m194 -70 c-7 -7 -10 -5 -7 5
1 9 -1 16 -7 17 -5 1 -9 -6 -7 -15 2 -14 0 -14 -13 2 -8 11 -15 14 -15 7 0 -7
-4 -9 -10 -6 -5 3 -10 11 -10 16 0 6 4 8 9 4 5 -3 12 -1 16 5 4 6 11 8 16 5 5
-4 12 2 16 11 6 15 8 13 15 -11 4 -18 3 -33 -3 -40z m502 51 c0 -6 2 -24 4
-41 6 -44 -2 -61 -28 -61 -22 0 -23 4 -21 47 1 27 5 52 8 57 7 12 36 11 37 -2z
m-855 -34 c1 -20 0 -31 -3 -23 -5 11 -7 11 -15 0 -8 -14 0 37 9 54 7 12 8 9 9
-31z m486 -4 c-6 -6 -8 -18 -5 -27 4 -13 2 -13 -10 2 -14 17 -15 17 -22 0 -5
-10 -7 -24 -6 -32 1 -7 -2 -10 -8 -7 -13 8 -7 61 7 61 12 0 26 13 28 26 3 22
5 23 15 6 8 -13 8 -22 1 -29z m-959 9 c4 3 7 -2 7 -12 0 -13 -3 -15 -13 -6
-10 8 -14 7 -14 -4 0 -8 4 -12 8 -9 8 5 3 -35 -5 -44 -3 -2 1 -17 9 -33 19
-35 19 -45 2 -30 -10 8 -14 7 -14 -4 0 -8 3 -13 6 -11 3 2 7 -12 7 -31 1 -24
-1 -31 -8 -22 -5 9 -6 3 -2 -16 9 -38 14 -44 14 -16 0 12 4 20 10 16 5 -3 6
-15 1 -28 -5 -13 -7 -36 -4 -51 4 -20 2 -27 -5 -22 -6 4 -8 14 -5 24 3 9 3 14
-1 11 -10 -9 -16 -50 -6 -44 9 6 8 -14 -1 -30 -4 -5 -5 -19 -2 -30 2 -11 5
-48 7 -81 2 -34 7 -68 12 -75 4 -8 9 -27 10 -44 2 -27 1 -28 -10 -12 -12 16
-14 16 -20 2 -4 -11 -2 -14 7 -9 6 4 9 4 5 0 -3 -4 0 -24 8 -43 19 -45 10 -56
-10 -12 -10 21 -13 24 -9 9 4 -14 6 -34 5 -45 0 -11 -3 -41 -4 -67 -2 -25 0
-44 4 -42 7 4 0 -47 -7 -55 -2 -2 2 -13 10 -25 19 -26 19 -47 0 -22 -13 18
-14 18 -12 -2 0 -11 4 -19 7 -17 9 5 11 -45 3 -58 -10 -17 -11 -47 -1 -41 10
6 11 -10 1 -19 -9 -10 -10 -86 0 -80 5 3 5 -11 2 -31 -4 -20 -4 -44 0 -53 13
-30 14 -43 3 -37 -7 5 -8 2 -3 -6 5 -7 4 -11 -1 -7 -5 3 -9 -12 -9 -33 0 -21
2 -37 5 -35 3 2 6 -8 7 -23 1 -15 -1 -21 -4 -13 -4 9 -8 10 -12 2 -4 -6 -7 15
-6 47 0 31 4 63 8 70 5 7 5 22 1 35 -11 33 -12 209 -2 230 5 10 6 26 2 35 -9
22 -11 372 -2 366 15 -9 19 19 7 53 -14 45 -19 223 -6 240 5 7 5 22 1 35 -13
38 -11 268 2 257 6 -5 14 -6 17 -2z m502 -9 c-12 -41 -12 -82 2 -127 16 -54
16 -73 1 -46 -11 19 -18 55 -21 107 -2 30 -17 27 -17 -3 0 -11 -4 -18 -9 -15
-4 3 -6 17 -4 31 3 13 9 22 14 19 5 -3 14 8 20 25 12 35 25 43 14 9z m143 -60
c8 -8 13 -7 18 6 5 14 10 12 26 -15 13 -22 23 -28 30 -21 7 7 6 16 -1 30 -6
11 -11 24 -11 29 1 4 7 -3 14 -17 l14 -25 1 30 c1 71 0 70 16 49 7 -11 18 -20
24 -20 6 -1 12 -2 14 -4 13 -10 40 -5 49 10 11 16 14 14 40 -26 16 -25 33 -42
39 -39 6 4 8 13 5 21 -6 16 10 29 19 14 8 -14 28 -1 22 14 -3 6 1 20 8 29 11
16 13 14 20 -15 9 -41 10 -107 1 -115 -6 -6 -7 8 -9 72 l0 30 -5 -30 c-4 -27
-5 -28 -13 -10 l-9 20 1 -20 c3 -47 -1 -88 -8 -81 -4 3 -7 28 -6 54 0 40 0 41
-4 9 -2 -20 -8 -35 -13 -32 -5 3 -7 13 -4 23 5 14 4 15 -5 2 -9 -13 -11 -13
-11 0 0 12 -2 12 -9 1 -6 -9 -11 -10 -15 -2 -4 6 -5 15 -2 19 2 4 0 14 -6 22
-8 13 -9 13 -5 -1 3 -9 1 -22 -4 -30 -6 -10 -9 -8 -9 11 0 14 -4 31 -9 39 -7
11 -11 8 -16 -10 -8 -23 -8 -23 -16 -4 -7 18 -8 18 -8 2 -1 -10 -6 -15 -11
-12 -6 4 -7 11 -4 17 5 7 2 8 -6 3 -9 -6 -11 -4 -5 6 8 12 6 12 -8 0 -15 -12
-17 -11 -18 5 0 19 -1 19 -8 0 -4 -10 -6 -36 -4 -58 2 -29 0 -37 -9 -31 -17
10 -39 13 -34 4 3 -4 0 -13 -5 -21 -8 -11 -9 -8 -6 12 2 16 0 25 -5 21 -6 -3
-7 -19 -4 -35 4 -20 2 -27 -5 -22 -7 4 -9 24 -6 52 3 29 2 40 -4 31 -5 -8 -8
-31 -7 -51 1 -20 -1 -40 -5 -44 -7 -7 -9 12 -9 71 0 26 0 27 -5 5 -2 -14 -9
-29 -15 -35 -7 -7 -8 -2 -4 15 l7 25 -16 -25 c-12 -18 -14 -19 -10 -5 4 11 8
25 9 32 1 7 5 15 9 19 3 4 0 19 -8 35 -8 15 -15 34 -14 41 0 7 9 -4 18 -25 10
-21 23 -43 29 -49z m452 68 c-9 -12 -7 -70 5 -98 4 -10 4 -18 1 -18 -4 0 -11
10 -16 23 -7 19 -9 19 -9 3 -1 -15 -4 -16 -16 -6 -8 7 -16 10 -16 6 -1 -3 -3
-15 -4 -26 -5 -42 -7 -44 -15 -20 -7 22 -8 23 -9 4 -1 -15 -7 -21 -22 -20 -14
1 -23 -6 -25 -17 -1 -11 -6 -22 -10 -25 -4 -4 -4 8 0 27 3 18 6 43 7 55 1 20
1 20 7 -2 10 -34 23 -31 45 11 15 30 22 35 33 26 11 -9 15 -8 19 3 3 8 5 19 4
24 -5 30 3 61 16 61 10 0 12 -4 5 -11z m-1066 -33 c-3 -15 0 -38 7 -50 10 -19
10 -26 0 -36 -11 -10 -12 -7 -7 13 6 22 5 23 -5 7 -8 -14 -8 -22 0 -30 14 -14
14 -28 0 -24 -6 1 -12 -8 -14 -20 -1 -13 3 -19 8 -16 6 4 8 -1 4 -11 -4 -10
-3 -15 3 -11 5 3 7 -4 5 -15 -2 -11 3 -36 11 -55 21 -51 16 -67 -7 -20 -19 39
-20 36 -4 -14 5 -15 4 -21 -3 -17 -11 7 -10 -14 3 -46 4 -10 4 -18 1 -18 -4 0
-10 10 -15 22 l-8 22 -5 -22 c-4 -12 -2 -20 2 -17 5 3 7 -4 5 -16 -2 -12 0
-30 6 -41 6 -11 7 -27 3 -36 -4 -9 -6 -21 -5 -27 2 -5 4 -17 6 -25 1 -8 8 -14
14 -12 8 2 10 -10 6 -38 -3 -22 -1 -48 4 -58 6 -11 7 -22 4 -26 -4 -4 -13 6
-20 21 -7 16 -11 19 -7 8 15 -54 16 -76 3 -73 -10 2 -12 -18 -11 -92 3 -134 2
-182 -4 -205 -4 -15 -3 -16 4 -6 7 9 10 1 10 -29 1 -39 0 -41 -14 -24 -9 11
-12 12 -7 4 4 -8 8 -46 8 -85 1 -49 4 -69 13 -68 7 2 12 -4 12 -13 0 -9 -5
-12 -12 -8 -6 4 -8 3 -5 -3 4 -6 0 -19 -7 -29 -10 -13 -11 -24 -5 -37 6 -9 7
-23 3 -29 -4 -7 -3 -8 4 -4 14 9 15 -4 2 -24 -8 -13 -10 -12 -10 3 0 9 0 18 1
20 0 1 -4 14 -10 28 -7 19 -6 32 4 45 7 11 14 22 16 25 2 3 -2 13 -9 21 -7 9
-12 35 -11 59 0 24 -1 58 -3 74 -2 17 0 35 5 42 5 7 4 20 -2 32 -8 14 -8 22 0
26 5 4 9 17 7 28 -1 12 1 28 6 35 4 7 2 22 -7 35 -8 13 -11 30 -7 42 4 11 5
29 3 40 -4 19 -5 70 -1 100 1 8 5 12 9 9 16 -10 19 17 5 50 -11 26 -11 35 -3
33 14 -2 17 52 4 71 -5 6 -11 40 -13 75 -2 34 -5 71 -7 82 -3 11 0 26 6 33 5
6 6 12 2 12 -4 0 -2 7 5 15 7 8 10 24 7 36 -3 12 -2 31 3 44 5 13 5 26 -1 32
-15 15 -20 55 -8 69 7 9 6 21 -5 42 -8 16 -13 32 -10 35 3 3 7 11 9 19 9 39
18 57 25 53 5 -3 6 -17 4 -32z m1179 -30 c-5 -21 -6 -48 -2 -58 4 -11 8 -29 8
-40 1 -16 -1 -17 -8 -5 -6 8 -7 18 -4 24 4 5 1 6 -7 1 -9 -6 -10 -1 -5 16 4
17 4 20 -3 10 -8 -12 -11 -11 -15 5 -2 10 -3 6 -1 -9 2 -17 0 -26 -6 -22 -6 3
-11 18 -11 33 l-1 27 -8 -30 c-8 -32 -10 -32 -14 2 -2 13 -6 26 -9 29 -4 4 -5
-7 -2 -24 2 -21 -1 -31 -8 -29 -7 1 -11 -9 -10 -26 2 -23 -1 -26 -11 -18 -7 6
-12 23 -10 39 4 27 4 27 -5 2 -5 -14 -10 -18 -10 -10 -1 13 -3 13 -10 0 -6 -8
-8 -17 -5 -21 2 -4 -1 -11 -7 -15 -9 -5 -10 0 -5 17 4 13 8 34 9 46 1 17 4 20
14 11 7 -6 13 -7 13 -3 0 4 6 2 14 -4 19 -16 30 3 16 28 -5 11 -7 27 -4 36 6
14 8 13 18 -6 15 -30 45 -33 56 -6 8 20 9 19 10 -8 l2 -30 9 35 c4 19 6 42 3
50 -4 12 -2 12 7 3 8 -8 9 -22 2 -50z m-840 34 c4 3 8 0 11 -8 15 -51 16 -51
31 -39 10 8 11 18 5 34 -6 17 -5 23 6 23 15 0 31 -43 20 -54 -3 -3 -1 -12 5
-19 8 -9 7 -18 -1 -31 -10 -16 -11 -16 -7 5 3 14 1 20 -5 15 -6 -3 -8 -1 -4 5
3 6 -1 9 -11 8 -9 -2 -19 -9 -22 -17 -2 -8 -10 6 -17 31 -7 28 -12 36 -13 22
-1 -13 -5 -21 -11 -17 -5 3 -6 13 -3 23 4 13 2 13 -11 -3 -15 -20 -16 -20 -12
5 3 14 5 27 5 29 1 2 7 -2 14 -8 8 -6 17 -8 20 -4z m-48 -25 c0 -9 7 -17 15
-17 10 0 15 -9 14 -27 0 -16 4 -24 10 -21 6 4 8 3 4 -2 -4 -4 -3 -15 2 -24 5
-10 5 -23 -1 -32 -6 -10 -9 -8 -9 12 0 25 -25 57 -45 58 -5 1 -9 10 -8 21 0
11 1 30 2 42 1 24 16 15 16 -10z m249 -19 c8 -27 17 -57 21 -68 7 -20 6 -20
-9 -1 -9 11 -16 29 -16 40 0 30 -9 14 -14 -25 -3 -19 -6 -35 -7 -36 -1 -2 -2
-6 -4 -10 -5 -19 -24 -57 -24 -50 -1 4 8 42 19 83 12 42 18 85 15 95 -4 10 -4
19 -1 19 3 0 12 -21 20 -47z m695 4 c1 -5 -3 -6 -9 -2 -5 3 -7 -13 -5 -42 4
-34 2 -44 -5 -33 -6 9 -10 10 -10 3 0 -7 8 -16 18 -22 15 -9 14 -10 -6 -8 -20
1 -23 5 -18 32 2 16 8 50 12 75 5 36 8 41 15 25 4 -11 8 -24 8 -28z m-479 8
c25 -16 41 -14 48 3 5 13 8 10 12 -12 3 -17 8 -28 11 -25 3 2 13 -2 22 -10 10
-7 17 -10 17 -6 0 5 9 0 20 -10 24 -22 44 -85 30 -99 -5 -5 -9 -2 -9 10 1 23
-8 65 -16 72 -3 3 -5 0 -5 -7 0 -7 -5 -9 -11 -6 -6 4 -8 14 -5 24 5 13 3 12
-8 -2 -14 -18 -15 -18 -19 0 -3 12 -4 11 -2 -4 1 -12 -2 -28 -6 -35 -6 -9 -9
-3 -9 17 0 17 -7 41 -16 55 -14 23 -14 23 -9 3 4 -13 4 -23 0 -23 -3 0 -10 10
-15 23 -7 18 -9 18 -9 4 -1 -10 -6 -15 -11 -12 -6 4 -7 11 -4 17 5 7 2 8 -6 3
-9 -6 -11 -4 -5 5 5 8 4 11 -2 7 -6 -4 -9 -23 -7 -42 1 -19 -1 -37 -7 -40 -5
-4 -9 0 -9 7 0 9 -3 9 -10 -2 -8 -12 -10 -12 -10 -1 0 8 -3 12 -6 9 -3 -4 -1
-15 5 -26 6 -11 7 -22 4 -26 -4 -4 -13 6 -19 21 l-13 28 5 -30 c3 -24 3 -26
-5 -10 -9 19 -10 19 -10 1 -1 -16 -3 -17 -18 -5 -14 12 -16 12 -8 0 6 -10 4
-12 -4 -6 -10 6 -11 3 -2 -13 6 -12 7 -23 2 -26 -5 -3 -12 6 -16 21 -6 25 -8
26 -17 10 -5 -10 -7 -25 -4 -32 3 -8 1 -17 -4 -20 -6 -4 -10 7 -10 24 0 16 4
32 9 35 4 3 7 18 5 33 -4 26 1 20 12 -16 3 -10 8 -10 18 -2 7 6 15 8 19 5 3
-3 13 8 22 26 13 25 19 29 30 20 18 -15 25 -1 22 42 -3 36 4 41 33 23z m-398
-128 c-3 -18 -7 -24 -12 -17 -5 8 -9 7 -13 -5 -4 -9 -3 -14 2 -10 9 5 8 -21 0
-55 -2 -8 2 -15 9 -16 6 -1 15 -3 20 -4 4 -1 10 -2 14 -1 4 0 12 -8 18 -19 6
-12 16 -18 23 -14 7 4 9 4 5 -1 -4 -4 -3 -13 2 -20 7 -8 5 -12 -5 -12 -7 0
-13 3 -12 6 1 3 -3 6 -8 6 -6 0 -9 -2 -8 -5 13 -37 13 -42 0 -20 -9 14 -12 29
-7 35 5 6 5 17 0 25 -6 8 -10 11 -10 7 0 -5 -6 -5 -12 0 -23 14 -50 14 -41 1
4 -7 8 -19 9 -26 3 -20 25 -42 35 -36 5 3 9 2 8 -3 -4 -14 13 -43 21 -38 5 3
11 1 14 -4 4 -5 -2 -8 -11 -7 -9 2 -19 8 -21 14 -2 7 -9 9 -14 6 -6 -4 -8 -2
-5 3 4 6 -2 18 -13 28 -18 16 -30 8 -13 -9 4 -3 8 -17 9 -29 2 -12 0 -16 -2
-9 -3 6 -10 10 -15 6 -5 -3 -6 -11 -2 -17 4 -7 8 -15 9 -19 1 -5 3 -10 4 -13
3 -7 7 -22 9 -36 0 -5 7 -7 14 -3 6 4 9 4 5 0 -4 -5 22 -43 56 -85 69 -83 90
-117 82 -130 -3 -5 1 -14 9 -21 10 -8 12 -17 6 -28 -6 -11 -3 -25 10 -43 10
-14 16 -29 13 -32 -3 -3 0 -16 7 -29 7 -12 12 -27 11 -32 -2 -4 4 -18 12 -30
12 -19 12 -26 0 -47 -15 -28 -18 -43 -5 -35 11 7 47 -32 38 -41 -4 -3 -7 -1
-7 6 0 7 -5 9 -10 6 -6 -4 -9 -1 -8 6 2 7 -2 13 -9 14 -22 0 -24 13 -9 43 11
21 12 32 4 40 -6 6 -12 19 -13 29 -1 10 -7 29 -14 41 -7 13 -10 26 -7 29 3 3
-3 18 -14 32 -12 18 -16 32 -10 41 10 16 3 33 -11 24 -5 -3 -6 -10 -3 -16 4
-7 2 -8 -5 -4 -6 4 -8 13 -4 19 12 20 12 39 0 63 -21 38 -152 192 -160 187 -4
-2 18 -34 50 -71 72 -84 98 -119 55 -73 -19 20 -38 35 -44 33 -5 -1 -7 1 -4 6
3 5 -8 24 -24 43 -16 19 -29 30 -30 25 0 -5 7 -17 14 -25 11 -12 12 -21 5 -31
-9 -13 -10 -12 -5 2 3 10 1 20 -4 23 -25 15 -6 -46 25 -82 35 -41 38 -64 15
-100 -10 -16 -11 -16 -5 2 14 41 16 67 5 60 -6 -4 -9 -1 -8 7 2 7 -3 12 -10
10 -8 -1 -11 1 -9 5 3 5 -1 16 -8 26 -11 15 -13 16 -19 2 -3 -8 -2 -15 2 -15
4 0 7 -38 7 -84 0 -47 -3 -79 -7 -73 -5 8 -8 7 -8 -4 0 -15 21 -31 44 -33 5
-1 11 -8 13 -16 4 -13 3 -13 -6 0 -6 8 -11 11 -11 6 0 -5 -7 -3 -15 4 -8 6
-18 9 -24 6 -12 -8 -21 17 -12 33 4 6 7 41 6 77 -2 39 1 60 6 52 10 -16 12 -6
3 17 -5 13 -8 14 -15 3 -7 -10 -9 -9 -9 5 0 9 4 17 8 17 11 0 8 108 -3 134 -6
15 -5 17 5 11 9 -6 11 -4 5 5 -5 8 -4 11 1 7 6 -3 10 5 10 18 0 13 -4 21 -10
18 -5 -4 -7 3 -4 15 4 12 2 25 -3 28 -5 3 -9 15 -9 27 0 17 2 19 9 7 6 -8 8
-17 5 -21 -2 -4 -1 -10 3 -12 5 -3 8 14 9 38 0 26 -4 41 -10 38 -5 -4 -6 3 -2
18 4 13 9 42 9 64 1 23 9 47 20 58 14 14 15 22 7 37 -6 11 -8 20 -5 20 3 0 1
8 -4 19 -6 10 -7 22 -3 25 10 11 29 -73 24 -107z m-312 31 c-10 -22 -10 -22
-7 5 3 15 1 30 -4 32 -4 3 -6 -16 -4 -42 4 -47 3 -47 -11 -23 -10 15 -13 17
-8 5 4 -11 8 -31 9 -45 0 -14 6 -41 13 -60 6 -19 10 -42 8 -50 -2 -8 -7 -30
-11 -47 -4 -18 -11 -30 -16 -28 -14 9 -17 -9 -6 -35 12 -30 16 -44 22 -90 3
-19 10 -52 16 -73 6 -22 8 -41 5 -44 -3 -3 -9 10 -15 28 -5 19 -10 26 -10 16
-1 -10 4 -28 10 -39 13 -24 14 -117 1 -130 -5 -5 -8 15 -7 44 2 39 1 42 -2 10
-2 -23 -8 -40 -13 -37 -5 3 -6 13 -3 23 3 9 3 14 -1 11 -10 -10 -16 -50 -6
-44 5 3 8 -3 7 -14 0 -11 -4 -18 -7 -16 -3 2 -4 -13 -3 -33 17 -228 17 -250 4
-266 -6 -7 -4 -25 4 -49 7 -20 9 -40 4 -43 -5 -3 -9 3 -9 12 0 10 -3 15 -6 11
-4 -3 -4 -14 0 -23 5 -14 9 -14 22 -3 14 11 15 8 8 -27 -4 -21 -7 -66 -7 -99
0 -33 -2 -54 -5 -46 -4 11 -6 11 -14 0 -7 -10 -8 -9 -4 6 3 11 -1 31 -9 45
-12 22 -11 28 7 53 19 26 18 65 0 53 -5 -3 -7 23 -5 57 5 60 4 172 0 349 -1
47 1 84 5 81 5 -2 10 2 12 9 2 7 7 22 12 33 4 11 6 25 4 30 -2 6 -4 33 -5 60
0 36 -4 49 -13 47 -8 -1 -11 1 -8 6 2 4 1 14 -4 22 -5 9 -5 19 2 27 5 7 7 21
3 30 -11 27 -14 64 -5 58 15 -9 21 14 10 34 -7 13 -7 22 0 26 5 3 10 -4 11
-17 1 -18 3 -17 10 9 7 24 5 42 -5 67 -8 19 -13 43 -12 53 2 10 -3 30 -11 46
-11 21 -11 27 -1 25 7 -2 14 4 14 12 1 8 5 26 9 39 l8 24 13 -26 c10 -19 11
-32 4 -49z m350 37 c0 -27 19 -25 34 2 13 24 15 25 17 8 5 -44 7 -51 23 -87 9
-21 16 -43 16 -50 -1 -17 -20 17 -25 44 -5 24 -15 37 -15 19 0 -7 -4 -9 -10
-6 -5 3 -10 11 -10 16 0 6 4 8 8 5 4 -2 8 6 8 19 0 13 -4 21 -8 19 -5 -3 -5
-10 -2 -16 4 -7 2 -8 -5 -4 -6 4 -11 4 -10 -1 4 -24 -4 -34 -11 -13 l-8 25 -1
-25 c-1 -20 -3 -22 -11 -10 -7 12 -9 11 -9 -5 1 -11 -4 -35 -9 -53 -8 -23 -8
-30 0 -26 7 5 8 2 3 -6 -5 -8 -4 -11 3 -7 5 4 8 16 5 26 -3 11 0 28 7 38 10
16 11 16 6 -5 -6 -32 3 -59 15 -40 7 10 9 10 9 -1 0 -11 4 -10 16 5 11 13 14
14 11 3 -3 -9 1 -16 8 -16 7 0 11 7 8 16 -2 9 2 5 10 -8 10 -17 16 -20 19 -10
3 8 6 3 6 -11 0 -14 3 -36 6 -50 4 -14 -1 -8 -10 13 -9 20 -20 37 -25 37 -13
0 -11 -13 8 -39 9 -14 11 -21 5 -17 -7 4 -20 22 -29 39 -10 20 -18 27 -21 19
-2 -8 5 -26 16 -42 11 -15 19 -36 17 -46 -1 -11 11 -34 29 -53 17 -19 26 -31
19 -27 -23 13 -22 -12 2 -48 19 -27 23 -42 16 -54 -7 -13 -3 -25 15 -49 14
-19 20 -34 14 -38 -6 -4 -7 -11 -4 -17 20 -31 -17 7 -41 44 -16 24 -38 53 -49
66 -11 12 -16 22 -12 22 5 0 3 7 -4 15 -7 9 -10 18 -6 22 3 3 -1 14 -9 23 -13
14 -13 19 2 40 19 26 28 84 12 74 -5 -3 -9 -2 -8 3 1 4 -5 24 -14 43 -14 30
-23 33 -18 7 1 -5 -4 -5 -11 0 -13 7 -18 9 -37 12 -11 1 -9 40 2 58 4 7 8 29
8 50 1 21 3 46 6 56 5 19 23 13 23 -8z m385 10 c6 0 12 -11 13 -24 2 -14 0
-21 -7 -17 -5 4 -7 14 -4 24 4 13 2 13 -10 -3 -9 -11 -12 -24 -7 -29 5 -5 6
-16 2 -25 -5 -13 -8 -11 -13 9 -7 24 -7 25 -8 2 -1 -13 -5 -21 -10 -18 -4 3
-7 -11 -5 -31 3 -36 -10 -35 -19 2 -4 18 -5 17 -6 -3 0 -13 -5 -21 -11 -17 -5
3 -8 11 -6 18 1 7 1 9 -1 4 -6 -9 -23 1 -23 13 0 4 8 7 18 5 21 -3 42 12 38
28 -1 7 -1 8 2 4 8 -15 31 30 27 52 -3 15 0 19 8 14 7 -4 17 -8 22 -8z m-674
-30 c3 -11 2 -33 -1 -50 -4 -16 -1 -46 6 -65 6 -19 15 -44 19 -55 6 -20 7 -20
20 -1 8 10 12 24 8 30 -3 6 -3 8 2 4 12 -12 34 11 29 30 -2 9 2 4 10 -13 8
-16 15 -39 16 -51 0 -11 3 -24 7 -27 11 -11 32 14 26 31 -4 15 -3 15 6 2 9
-13 11 -13 11 0 1 8 7 2 15 -15 l14 -30 -5 30 -6 30 16 -29 c19 -33 20 -40 6
-31 -14 9 -24 -21 -15 -42 5 -10 7 -25 6 -35 -1 -9 3 -19 9 -23 8 -5 6 -13 -5
-25 -12 -14 -14 -23 -6 -37 5 -11 8 -42 5 -69 -6 -57 -6 -68 -1 -149 2 -33 0
-67 -4 -76 -9 -18 5 -44 23 -44 7 0 13 -12 13 -26 0 -14 7 -34 15 -45 14 -19
14 -19 -8 0 -23 20 -31 9 -10 -12 6 -6 13 -22 15 -34 2 -16 0 -19 -6 -9 -5 8
-11 9 -15 3 -6 -11 11 -27 28 -27 13 0 16 -47 4 -65 -8 -12 -8 -11 -4 3 7 23
-11 60 -25 51 -6 -4 -6 -11 1 -19 20 -25 -2 -41 -55 -40 -38 0 -50 -4 -50 -15
-1 -8 4 -18 10 -22 6 -5 6 -8 -2 -8 -7 0 -10 -12 -7 -32 3 -21 2 -28 -4 -20
-11 16 -17 115 -12 177 3 23 5 19 10 -20 l7 -50 -2 59 c-1 46 1 55 10 43 6 -9
10 -37 9 -64 -2 -36 0 -42 6 -23 7 21 14 13 12 -11 -1 -3 5 -6 13 -6 8 0 14 3
13 6 -3 32 4 101 10 97 5 -3 7 -29 4 -58 -2 -29 -1 -50 3 -47 3 4 7 29 7 57 1
28 5 49 8 47 4 -2 7 2 7 10 0 8 -4 12 -9 9 -4 -3 -8 8 -8 25 0 16 5 33 10 36
6 3 10 12 10 18 0 7 -4 6 -10 -3 -8 -12 -10 -12 -16 4 -4 12 -9 14 -14 6 -4
-6 -6 9 -5 33 1 24 5 49 8 54 4 6 4 21 1 34 -4 13 -7 34 -8 46 -2 13 -6 26 -9
30 -4 3 -2 12 4 20 6 7 8 13 4 13 -4 0 -3 6 3 13 12 14 10 93 -3 105 -4 4 -4
-4 0 -17 5 -16 4 -21 -4 -17 -12 8 -10 81 3 93 5 4 6 -3 3 -16 -4 -17 -3 -21
5 -13 6 6 7 18 3 29 -8 19 -13 40 -18 85 -1 15 -7 31 -11 35 -5 5 -6 2 -1 -6
6 -10 4 -12 -5 -6 -9 6 -11 4 -5 -5 6 -9 4 -11 -5 -5 -8 5 -11 4 -6 -3 3 -6 2
-13 -4 -17 -5 -3 -10 2 -11 12 0 16 -1 16 -8 -1 -10 -26 -19 -3 -15 42 1 17
-3 35 -9 39 -6 3 -7 1 -3 -6 5 -7 2 -10 -5 -9 -16 4 -16 -52 -1 -99 6 -20 7
-35 1 -38 -5 -4 -9 2 -9 12 0 26 -29 102 -30 78 0 -11 -5 -27 -11 -35 -9 -12
-10 -10 -5 9 3 13 -2 37 -10 53 -8 15 -12 28 -10 28 3 0 -1 14 -8 31 -7 17
-11 50 -9 74 3 23 1 45 -4 48 -5 3 -7 -9 -5 -28 2 -18 -1 -36 -7 -39 -7 -5 -9
4 -6 26 l5 33 -11 -30 c-5 -16 -11 -35 -13 -42 -1 -7 -5 -15 -8 -19 -4 -3 2
-25 12 -49 10 -24 16 -46 12 -49 -7 -8 -13 -33 -14 -68 -1 -15 -6 -26 -11 -25
-5 1 -11 -6 -12 -16 -2 -9 0 -15 4 -13 4 3 8 -5 8 -17 1 -12 6 -44 11 -72 9
-49 10 -49 11 -12 0 21 5 36 10 33 4 -3 6 -18 4 -33 -2 -16 -6 -71 -9 -123 -2
-52 -4 -99 -5 -105 -1 -5 0 -14 1 -20 6 -27 -3 -36 -11 -10 -7 27 -8 26 -4 -9
4 -39 -9 -40 -17 -1 -3 17 -5 17 -9 -5 -3 -14 -2 -36 2 -50 7 -24 7 -25 8 -2
1 13 6 20 11 17 6 -4 7 -13 1 -23 -5 -9 -7 -30 -5 -47 2 -17 0 -25 -5 -17 -5
8 -8 1 -8 -18 0 -17 3 -26 7 -19 7 11 5 -63 -4 -131 -2 -19 0 -42 5 -50 7 -11
8 -8 3 9 -4 16 -3 21 5 17 12 -8 9 -122 -4 -134 -4 -4 -5 14 -2 39 3 25 2 50
-4 56 -16 16 -28 70 -18 80 11 11 12 41 4 153 -9 125 -7 163 6 154 24 -15 45
128 28 191 -5 16 -11 46 -14 65 -7 51 -10 64 -16 75 -14 25 -18 45 -7 42 10
-2 23 28 34 80 2 13 -2 39 -10 58 -14 32 -13 40 4 90 11 31 22 60 25 65 9 15
29 7 36 -15z m715 -35 c4 -12 9 -10 23 9 12 16 20 20 25 12 4 -6 11 -9 15 -7
4 3 8 0 9 -7 0 -7 3 -28 6 -47 3 -19 1 -49 -4 -65 -8 -26 -9 -24 -5 15 3 32 2
41 -5 30 -7 -11 -9 -4 -5 25 3 28 2 35 -5 25 -8 -12 -10 -10 -11 10 -1 22 -2
23 -7 5 -4 -11 -14 -20 -22 -20 -8 1 -21 -4 -29 -9 -12 -9 -13 -7 -9 12 8 30
0 28 -13 -4 -5 -15 -12 -24 -15 -21 -3 3 -1 14 5 25 7 13 7 23 -2 32 -10 12
-9 12 4 2 19 -14 28 -7 30 22 1 17 3 16 6 -4 2 -14 6 -32 9 -40z m-251 24 c11
15 13 14 17 -9 3 -14 1 -28 -3 -31 -10 -6 -12 -58 -2 -67 12 -12 31 13 27 36
-4 21 -4 21 6 -2 8 -19 13 -21 25 -11 7 6 11 19 8 28 -4 9 6 2 21 -16 15 -17
32 -30 36 -27 5 3 11 1 15 -5 10 -16 27 -1 21 18 -3 10 -2 23 3 30 7 11 9 10
15 -3 3 -10 11 -13 18 -8 7 4 16 8 21 9 4 1 8 3 10 4 1 1 14 3 30 4 25 3 32
-5 28 -28 -1 -4 3 -14 9 -21 8 -9 8 -15 0 -20 -5 -3 -11 2 -11 12 -1 10 -5 5
-9 -12 -8 -27 -8 -26 -7 12 0 23 -2 46 -6 49 -4 4 -7 1 -7 -7 0 -12 -2 -11
-11 1 -9 13 -10 13 -6 0 2 -8 0 -24 -5 -35 l-9 -20 17 20 c16 19 16 19 11 -10
-7 -37 2 -53 25 -49 26 4 31 -12 13 -43 -15 -25 -14 -16 1 22 4 10 0 13 -15
10 -16 -3 -25 4 -38 28 -10 20 -18 27 -21 18 -6 -17 32 -67 49 -63 10 2 9 0
-1 -13 -11 -13 -10 -19 5 -35 9 -10 14 -24 10 -30 -4 -6 -1 -17 5 -25 7 -8 9
-15 5 -15 -4 0 13 -22 39 -50 25 -27 46 -54 46 -60 0 -5 6 -9 13 -8 6 2 12 -4
12 -13 0 -8 8 -27 17 -41 11 -17 13 -29 6 -39 -8 -12 -9 -11 -5 2 3 8 -3 26
-13 39 -10 13 -15 30 -12 39 3 9 1 12 -6 7 -7 -4 -18 6 -28 26 -16 30 -17 31
-30 13 -8 -10 -14 -13 -14 -7 0 7 -16 30 -36 52 -20 22 -33 40 -29 40 5 0 0 9
-10 20 -10 11 -22 17 -28 13 -5 -3 -7 -1 -4 4 7 11 -21 42 -38 42 -5 0 -11 5
-13 13 -2 9 0 8 7 -2 6 -8 11 -11 11 -7 0 5 6 5 13 0 6 -4 15 -8 20 -8 4 0 6
-3 5 -6 -5 -11 24 -39 33 -33 5 3 9 2 8 -3 -1 -4 0 -11 1 -15 1 -5 3 -12 4
-16 2 -16 65 -82 70 -73 3 4 -8 21 -24 36 -16 15 -27 32 -24 36 2 4 0 11 -6
14 -6 4 -8 16 -4 27 5 15 3 19 -7 13 -8 -5 -11 -5 -7 0 4 4 3 14 -4 22 -6 7
-8 16 -5 20 4 3 -5 19 -18 35 -14 16 -25 36 -25 44 0 9 -4 12 -10 9 -15 -9
-12 -19 12 -51 20 -25 36 -66 20 -49 -4 4 -5 8 -2 10 3 1 -3 12 -14 24 -10 11
-23 18 -29 14 -6 -3 -7 -1 -3 5 9 15 -12 54 -25 46 -6 -4 -6 -11 1 -19 7 -8 9
-19 6 -24 -6 -10 11 -26 28 -26 5 0 11 -7 13 -15 4 -13 3 -13 -6 0 -6 8 -11
11 -11 6 0 -5 -6 -3 -13 3 -8 6 -17 8 -20 5 -3 -4 -4 6 -1 21 3 19 1 24 -7 19
-7 -4 -9 -3 -6 3 3 5 -3 17 -13 26 -17 15 -19 14 -23 -1 -2 -9 -3 -7 -2 6 1
12 0 22 -2 22 -2 0 -8 -10 -13 -22 -8 -22 -9 -21 -10 7 -2 29 -2 29 -9 5 -5
-14 -6 -33 -5 -44 2 -10 0 -15 -4 -12 -4 4 -7 12 -7 17 0 5 -4 9 -10 10 -5 1
-18 5 -27 10 -14 8 -18 6 -19 -8 0 -16 -1 -16 -8 1 -5 12 -10 16 -14 9 -9 -15
3 -44 15 -37 5 3 3 -7 -6 -23 -10 -21 -12 -33 -5 -40 7 -7 4 -23 -10 -49 -11
-22 -20 -34 -20 -29 0 6 6 21 14 35 17 29 19 44 6 35 -10 -6 -7 27 4 45 3 5
-3 27 -15 49 -12 24 -16 42 -10 46 6 3 11 -4 11 -17 l2 -23 4 23 c4 23 5 23
20 5 8 -10 12 -12 8 -5 -4 7 -8 29 -10 48 -3 37 -15 60 -15 31 0 -9 -5 -16
-12 -14 -7 1 -12 -3 -13 -10 0 -6 -3 -14 -7 -18 -8 -8 1 -64 13 -87 7 -12 6
-26 -2 -40 -13 -25 -13 -25 4 -48 10 -13 10 -13 -5 -2 -10 8 -15 22 -12 35 9
37 9 41 -4 84 -9 32 -10 48 0 70 6 15 12 31 12 35 1 3 4 9 8 13 4 4 4 14 1 23
-3 10 3 6 12 -7 17 -22 19 -22 30 -7z m535 -41 c0 -2 -5 -1 -11 3 -7 4 -7 -1
1 -16 6 -12 9 -24 6 -27 -3 -3 -10 5 -15 18 -7 18 -10 20 -10 6 -1 -10 -6 -15
-11 -12 -6 4 -7 11 -4 17 5 7 2 8 -6 3 -9 -6 -11 -4 -5 6 5 8 4 11 -1 6 -5 -5
-10 -13 -10 -18 -3 -22 -6 -23 -14 -4 -8 18 -9 18 -9 2 -1 -10 -6 -15 -11 -12
-6 4 -8 10 -5 15 3 5 0 12 -6 16 -7 4 -9 3 -5 -4 3 -6 1 -14 -5 -17 -7 -5 -9
0 -7 13 2 12 -1 21 -7 21 -5 0 -9 -10 -7 -22 2 -16 0 -18 -6 -9 -7 10 -12 6
-21 -17 -7 -16 -11 -34 -8 -38 3 -5 2 -15 -3 -23 -6 -10 -2 -22 15 -40 18 -19
22 -29 14 -40 -9 -13 -10 -13 -6 1 3 10 -4 26 -17 38 -28 26 -26 74 4 123 10
17 17 35 15 38 -3 4 5 7 18 6 12 0 25 -9 30 -20 6 -15 10 -16 22 -6 8 7 12 17
8 24 -3 6 5 1 19 -12 28 -26 40 -20 32 17 -6 26 -6 26 10 -3 9 -15 16 -30 16
-33z m28 47 c1 -2 7 -3 14 -4 6 0 12 -7 14 -14 1 -7 0 -8 -3 -2 -3 6 -11 4
-20 -5 -17 -18 -24 -75 -9 -75 6 0 4 -5 -4 -10 -8 -5 -11 -10 -7 -10 4 0 2 -6
-5 -14 -11 -11 -15 -11 -25 3 -11 14 -12 14 -13 0 0 -19 44 -62 54 -52 4 4 4
0 1 -9 -6 -14 -12 -11 -36 16 -16 19 -29 40 -29 47 0 10 -3 10 -12 1 -9 -9 -6
-18 16 -41 17 -18 29 -43 31 -63 2 -18 8 -32 14 -30 9 2 9 -3 1 -18 -6 -11 -8
-20 -5 -20 3 0 -1 -12 -9 -28 -11 -22 -12 -31 -2 -45 7 -9 15 -15 18 -12 2 3
5 -2 5 -12 0 -12 -7 -8 -23 12 -18 22 -20 33 -13 48 14 25 22 70 12 64 -4 -3
-8 12 -9 32 0 28 -9 48 -35 79 -18 22 -36 36 -38 31 -2 -6 12 -27 30 -47 19
-20 27 -31 18 -24 -9 6 -20 8 -24 4 -5 -4 -5 -2 -2 4 7 12 -26 48 -36 38 -3
-3 -3 5 -1 18 5 22 5 22 -10 4 -16 -20 -8 -41 16 -41 6 0 12 -6 14 -13 1 -7 0
-8 -3 -2 -2 5 -8 8 -13 5 -12 -7 -33 23 -36 53 -2 17 0 22 5 14 6 -11 10 -10
15 4 5 14 9 15 15 5 7 -10 9 -10 14 2 6 16 -9 17 -30 4 -9 -5 -13 -2 -14 10
-1 16 -2 16 -6 -1 -4 -13 -7 -15 -13 -7 -4 7 -6 -3 -5 -22 2 -33 39 -95 53
-89 4 1 8 -2 8 -8 1 -5 2 -15 3 -21 0 -5 6 -7 11 -4 6 4 10 3 9 -2 -1 -4 0
-11 1 -15 1 -5 4 -12 5 -18 1 -5 4 -12 5 -15 1 -3 3 -9 4 -15 2 -15 21 -12 22
3 0 6 -4 18 -9 25 -6 8 -6 12 2 12 6 0 12 -4 12 -10 1 -5 2 -16 3 -22 1 -7 -4
-22 -11 -32 -11 -17 -9 -24 13 -54 14 -18 23 -36 20 -39 -3 -4 2 -16 11 -27
18 -21 18 -21 -4 -2 -13 10 -20 23 -17 27 3 5 -6 24 -20 42 -14 19 -23 37 -20
40 4 4 1 13 -6 22 -7 8 -9 15 -5 15 5 0 1 8 -8 18 -8 9 -15 21 -15 26 0 4 -16
31 -37 59 -54 73 -58 136 -7 131 15 -1 27 -3 27 -4 0 -7 36 -6 41 1 3 6 11 5
20 -2 8 -6 14 -8 14 -4 0 4 7 2 15 -5 17 -14 16 -15 20 28 1 18 -1 35 -6 38
-16 10 -9 32 9 29 9 -2 18 -4 20 -5z m-698 -50 c3 -1 7 -2 10 -2 3 0 7 -9 7
-20 2 -19 1 -19 -11 -3 -12 17 -14 17 -28 -4 -15 -21 -15 -21 -14 8 1 26 9 31
36 21z m118 -18 c-2 -8 -11 -16 -21 -18 -14 -2 -15 1 -8 10 6 7 9 15 6 18 -3
2 2 5 10 5 9 0 15 -7 13 -15z m-473 0 c-2 -2 2 -20 10 -38 8 -19 12 -34 9 -34
-2 0 2 -12 9 -27 14 -29 16 -97 3 -110 -5 -5 -7 1 -6 12 1 11 1 22 0 25 -1 3
-4 21 -5 40 -2 35 -29 110 -39 110 -3 0 3 -19 13 -43 12 -28 16 -49 10 -65 -5
-12 -6 -22 -2 -22 3 0 0 -7 -7 -15 -6 -8 -9 -18 -6 -24 3 -5 2 -20 -3 -33 -10
-28 4 -72 20 -62 8 5 9 3 4 -6 -6 -9 -4 -11 5 -5 9 6 11 4 5 -5 -5 -9 -4 -11
3 -6 8 5 12 -1 12 -16 0 -19 -2 -20 -11 -8 -8 12 -9 10 -4 -7 3 -12 1 -24 -4
-27 -5 -4 -7 -16 -5 -29 11 -47 15 -92 7 -80 -5 6 -9 -22 -10 -65 -3 -84 -6
-108 -15 -118 -4 -3 -4 -12 -2 -19 3 -7 1 -16 -5 -19 -7 -5 -7 -14 1 -31 6
-13 7 -32 3 -42 -12 -26 -12 -36 -2 -56 5 -11 5 -23 -1 -30 -12 -16 -24 -63
-12 -51 4 5 10 18 13 29 2 11 4 -10 5 -47 0 -37 6 -76 12 -88 8 -15 8 -25 0
-38 -9 -13 -10 -13 -7 -1 3 9 1 22 -5 30 -8 11 -9 11 -5 -2 3 -9 1 -22 -3 -29
-5 -7 -6 16 -4 52 3 48 0 69 -10 78 -9 6 -12 21 -9 33 3 12 6 65 8 117 3 99 7
126 24 157 5 11 6 25 1 33 -5 8 -6 19 -3 24 4 6 8 51 9 101 2 49 5 101 7 115
4 27 -10 53 -24 44 -5 -3 -10 2 -10 10 -1 9 -2 24 -3 34 -1 9 -5 23 -9 30 -6
8 -4 11 4 10 7 -2 14 9 15 27 4 42 9 63 16 71 4 3 -2 26 -12 50 -12 26 -15 46
-9 49 5 4 7 10 5 14 -3 4 1 8 9 8 8 0 13 -2 10 -5z m347 -24 c-7 -7 -12 -8
-12 -2 0 14 12 26 19 19 2 -3 -1 -11 -7 -17z m695 -70 c-3 -8 -6 -5 -6 6 -1
11 2 17 5 13 3 -3 4 -12 1 -19z m-931 -21 c-11 -43 23 -67 56 -39 11 9 15 9
16 -1 8 -60 8 -73 3 -82 -11 -19 -10 -80 2 -93 16 -20 19 -52 6 -68 -6 -8 -8
-14 -4 -14 4 0 2 -6 -4 -13 -6 -8 -8 -17 -4 -20 3 -4 7 -17 9 -30 1 -12 5 -34
8 -49 3 -15 3 -29 -1 -31 -5 -3 -8 -27 -8 -54 0 -34 4 -48 14 -48 9 0 14 -13
15 -42 0 -23 -3 -41 -9 -40 -5 1 -12 -20 -15 -47 -5 -49 -5 -49 -19 -24 -7 14
-11 31 -7 36 3 5 -2 20 -13 33 l-18 23 -13 -24 c-13 -23 -16 -108 -6 -185 2
-22 2 -34 -1 -26 -5 11 -7 11 -14 0 -5 -8 -6 13 -3 48 2 36 0 64 -6 68 -5 3
-10 18 -10 33 0 21 2 24 10 12 7 -12 9 -11 9 5 0 48 7 70 20 70 10 0 20 19 27
50 l13 50 -3 -55 c-2 -30 -1 -43 1 -27 7 42 20 24 17 -25 -2 -43 -2 -43 12
-16 16 31 12 74 -6 70 -8 -2 -11 7 -8 27 2 17 1 28 -3 26 -7 -5 -20 47 -13 54
2 2 8 -7 14 -20 9 -22 9 -21 6 9 -2 17 -1 30 3 28 4 -3 7 4 7 14 0 10 -3 17
-6 15 -3 -2 -6 4 -7 13 -1 9 -4 33 -6 52 -3 20 2 44 10 56 9 15 11 28 4 45 -9
21 -10 22 -11 4 0 -16 -2 -17 -9 -6 -5 8 -7 30 -4 50 2 20 4 51 4 69 0 18 4
30 8 28 5 -3 6 7 3 22 l-6 27 -6 -25 c-5 -22 -7 -23 -13 -7 -10 26 -28 11 -23
-19 3 -16 1 -22 -6 -18 -6 4 -8 3 -5 -2 3 -6 2 -16 -4 -24 -7 -12 -9 -10 -9 7
0 12 4 24 9 28 6 3 5 18 -1 38 -14 42 -17 98 -5 90 5 -3 6 -14 3 -26z m454 -2
c5 3 11 2 14 -3 2 -4 -6 -8 -19 -8 -13 0 -22 3 -19 7 2 4 0 10 -6 14 -5 3 -10
11 -10 18 0 6 7 1 16 -11 8 -12 19 -20 24 -17z m30 20 c5 3 11 1 14 -4 4 -5
-2 -8 -11 -7 -9 2 -18 8 -19 15 -1 6 0 7 3 1 2 -5 9 -8 13 -5z m-309 -20 c5 4
6 -1 2 -10 -5 -13 -7 -14 -14 -3 -5 7 -8 18 -8 23 0 6 3 4 6 -3 2 -6 9 -10 14
-7z m236 -16 c-5 -20 15 -43 28 -31 5 4 5 2 1 -5 -3 -6 -2 -14 4 -18 7 -4 7
-12 1 -23 -7 -12 -5 -22 6 -34 10 -11 12 -24 7 -40 -7 -23 -4 -35 6 -31 4 1 6
-9 6 -22 0 -14 -2 -22 -5 -19 -4 3 -6 10 -6 15 0 8 -13 13 -16 7 -6 -11 15
-47 23 -42 6 4 8 2 5 -3 -4 -6 20 -41 53 -77 33 -37 60 -72 60 -79 0 -8 11
-24 25 -37 14 -13 23 -26 20 -29 -3 -2 7 -18 22 -35 l28 -31 -32 29 c-18 16
-30 32 -28 36 7 11 -30 41 -39 33 -4 -5 -7 -3 -6 2 6 29 -5 51 -61 111 -63 70
-93 117 -82 128 4 4 8 12 9 19 2 7 6 21 9 33 4 13 1 25 -9 33 -11 9 -13 18 -6
31 7 13 3 23 -14 39 -16 15 -22 29 -18 43 4 16 2 19 -8 13 -9 -5 -11 -4 -6 4
11 17 29 2 23 -20z m110 16 c-4 -8 -2 -17 4 -20 5 -4 7 -10 4 -15 -3 -4 2 -13
10 -20 8 -7 13 -23 11 -35 -3 -16 7 -36 30 -63 19 -22 34 -43 34 -47 0 -4 -18
14 -39 40 -29 35 -38 54 -35 72 3 17 1 22 -7 17 -7 -4 -9 -3 -5 4 3 6 2 13 -4
17 -6 4 -8 10 -5 15 3 5 1 11 -4 15 -10 5 -4 35 6 35 3 0 3 -7 0 -15z m218
-25 c-7 -12 6 -41 15 -35 4 3 13 -2 20 -10 7 -8 9 -15 5 -15 -5 0 0 -9 10 -20
10 -11 14 -20 10 -20 -4 0 0 -10 11 -22 l19 -23 -23 19 c-12 11 -20 21 -17 24
3 3 -2 14 -12 24 -9 10 -13 18 -9 18 4 0 4 5 1 10 -13 21 -25 -1 -13 -23 7
-12 12 -24 13 -27 0 -12 43 -59 48 -54 3 3 8 1 11 -4 3 -6 0 -9 -8 -8 -14 2
-73 66 -61 66 4 0 2 6 -4 14 -11 13 -20 41 -25 76 -1 8 -6 16 -11 17 -6 0 -9
-3 -7 -9 1 -5 -2 -7 -8 -3 -8 5 -8 11 -1 19 6 7 7 17 3 22 -4 5 3 0 15 -10 13
-10 20 -22 18 -26z m-241 -24 c-5 -14 -3 -16 7 -11 8 5 11 5 7 0 -4 -4 -3 -14
4 -22 9 -11 8 -13 -3 -11 -10 2 -13 -6 -11 -31 3 -40 -4 -39 -12 2 -2 14 0 29
5 33 5 3 6 11 2 17 -4 7 -8 25 -9 41 -1 20 1 24 7 15 5 -8 6 -22 3 -33z m-199
14 c-2 -4 5 -21 17 -36 l21 -29 -22 20 c-21 21 -39 71 -20 60 5 -4 7 -10 4
-15z m170 -9 c-3 -11 -1 -22 5 -26 7 -4 7 -12 0 -24 -5 -10 -6 -22 -2 -26 4
-5 1 -5 -6 -1 -9 5 -9 13 -2 26 6 12 6 21 1 25 -12 7 -10 45 2 45 5 0 6 -9 2
-19z m406 -17 c5 -6 4 -11 -4 -11 -7 0 -13 12 -14 26 -1 14 1 19 4 11 3 -8 10
-20 14 -26z m-896 -41 c4 -24 10 -45 15 -48 13 -8 37 38 34 65 -2 23 -2 23 11
-5 7 -16 11 -39 8 -50 -5 -18 -5 -37 -2 -125 l1 -25 14 25 c7 14 13 20 14 15
0 -6 -6 -19 -14 -30 -7 -11 -12 -31 -10 -45 11 -94 11 -119 0 -117 -6 1 -10
-7 -9 -18 3 -29 -20 -135 -28 -130 -10 7 -32 -22 -25 -33 3 -5 -1 -18 -9 -28
-17 -22 -19 -60 -5 -69 8 -5 8 -32 1 -119 -2 -25 -14 9 -18 51 -3 35 -1 44 6
33 8 -12 10 -11 8 7 0 12 -5 19 -9 17 -4 -3 -8 5 -9 18 0 13 -2 31 -4 41 -2
10 1 14 7 11 7 -5 8 -2 3 6 -5 8 -4 11 2 7 6 -4 11 -1 10 6 -1 39 4 58 15 51
7 -5 8 -3 3 6 -5 8 -4 11 3 6 16 -10 20 -1 37 92 4 18 3 23 -4 13 -6 -9 -9 0
-8 29 1 37 3 40 14 24 7 -10 13 -14 14 -8 0 5 2 19 3 31 1 12 -1 20 -4 18 -4
-3 -8 28 -8 68 -1 95 -1 94 -12 77 -9 -13 -10 -13 -10 1 0 8 5 20 11 26 8 8 7
17 -5 34 -10 16 -16 18 -16 9 -1 -11 -3 -11 -11 3 -6 9 -15 15 -20 11 -6 -3
-8 5 -4 23 l6 28 -16 -30 c-13 -26 -15 -27 -10 -5 3 14 8 39 10 55 4 23 3 26
-4 10 -5 -11 -6 -24 -3 -29 3 -5 -1 -6 -8 -1 -8 5 -11 4 -7 -3 4 -5 2 -21 -3
-34 -10 -23 -10 -23 -7 3 2 16 -1 26 -7 25 -24 -3 -34 -17 -30 -39 4 -20 4
-20 -4 -2 -5 11 -6 29 -2 41 5 11 8 27 7 35 -1 8 3 15 8 16 6 1 9 -6 7 -17 -6
-34 18 -31 35 5 19 40 27 34 38 -32z m719 16 c-3 -6 0 -16 6 -24 7 -8 9 -15 5
-15 -4 0 11 -20 34 -45 22 -24 41 -48 41 -51 0 -9 -85 87 -86 98 -1 4 -3 9 -4
11 -1 1 -3 20 -5 42 -3 33 -2 36 6 17 5 -13 6 -28 3 -33z m110 0 c-2 -4 3 -12
11 -19 8 -7 13 -16 10 -20 -3 -5 -1 -11 5 -15 5 -3 10 -14 9 -23 0 -11 -4 -8
-10 8 -6 14 -10 27 -10 30 0 3 -8 13 -16 23 -9 9 -13 17 -9 17 3 0 -1 12 -10
28 l-16 27 20 -25 c11 -13 19 -27 16 -31z m-564 32 c0 -6 -4 -12 -8 -15 -5 -3
-9 1 -9 9 0 8 4 15 9 15 4 0 8 -4 8 -9z m170 -40 c-6 -11 -2 -23 13 -41 l22
-25 -27 24 c-22 19 -25 28 -17 42 5 11 7 19 4 19 -15 0 -20 -3 -17 -12 1 -5
-2 -7 -8 -3 -8 5 -8 11 -1 19 6 7 7 17 3 22 -4 5 3 0 15 -10 16 -14 20 -23 13
-35z m166 8 c1 -5 3 -12 4 -16 2 -5 4 -13 4 -19 1 -12 86 -108 86 -97 0 3 8
-1 18 -10 10 -10 22 -14 26 -10 12 12 65 -57 59 -75 -4 -9 -2 -13 4 -9 6 4 9
-6 8 -24 -2 -28 8 -44 29 -44 5 0 10 -6 12 -13 1 -7 0 -8 -3 -2 -2 5 -8 8 -13
5 -11 -7 -33 22 -37 48 -7 48 -10 56 -26 81 -10 14 -22 26 -27 26 -6 0 -3 -12
7 -26 9 -15 18 -34 19 -43 1 -9 5 -27 9 -41 4 -16 1 -13 -9 9 -9 18 -14 36
-11 40 6 11 -55 82 -65 76 -5 -3 -13 2 -18 11 -5 9 -13 17 -18 17 -5 1 -8 5
-7 8 1 3 -11 19 -27 34 -17 17 -26 33 -23 43 4 9 2 13 -3 9 -6 -3 -10 5 -10
18 0 22 9 25 12 4z m153 -35 c-1 -3 12 -20 28 -37 l28 -32 -32 29 c-18 16 -30
33 -27 37 2 4 0 10 -6 14 -5 3 -10 14 -9 23 0 12 3 11 9 -6 5 -12 9 -25 9 -28z
m-544 6 c-3 -5 -1 -11 4 -15 5 -3 8 -15 6 -27 -3 -14 4 -32 18 -48 13 -14 29
-34 37 -45 7 -11 -5 0 -28 25 -25 28 -39 53 -38 65 2 11 -1 26 -6 33 -6 6 -7
12 -3 12 4 0 1 8 -6 18 -13 15 -12 16 3 3 10 -7 16 -17 13 -21z m233 -67 c-6
-7 -7 -13 -4 -13 4 0 3 -8 -3 -17 -11 -21 9 -52 86 -134 29 -31 51 -58 48 -61
-18 -18 -10 -50 25 -91 20 -26 40 -43 44 -40 3 4 -8 21 -25 39 -22 22 -26 32
-15 30 9 -1 17 -6 17 -12 0 -5 14 -23 30 -41 24 -24 29 -35 22 -48 -9 -16 -10
-16 -16 -1 -4 10 -3 15 3 11 6 -3 10 -2 10 4 0 19 -19 21 -29 4 -6 -10 -11
-13 -11 -6 0 15 -66 94 -73 87 -2 -3 -3 9 -2 26 1 17 5 34 9 37 9 10 -25 43
-37 36 -5 -3 -7 -1 -3 5 3 6 2 13 -3 16 -5 4 -12 3 -15 -2 -7 -11 11 -37 25
-37 7 0 14 -7 16 -15 4 -12 3 -12 -5 -1 -6 8 -12 9 -16 3 -3 -6 -2 -13 2 -16
5 -3 8 -20 7 -38 -1 -24 6 -42 25 -63 28 -31 48 -71 30 -60 -6 3 -10 12 -10
19 0 7 -13 24 -28 39 -21 20 -28 36 -27 60 1 17 -2 38 -8 45 -5 6 -7 12 -3 12
4 0 -1 11 -9 24 -11 17 -13 26 -5 31 8 5 6 13 -6 26 -9 10 -21 16 -27 12 -6
-3 -7 -1 -3 5 4 7 -4 27 -18 45 -17 22 -22 37 -16 47 10 16 -26 74 -40 65 -5
-3 -11 -1 -14 4 -12 19 28 4 45 -18 10 -12 20 -17 23 -13 3 5 -4 18 -15 28
-12 10 -26 28 -31 39 -6 11 5 2 25 -20 25 -29 32 -43 25 -52z m-194 19 c-3
-15 -1 -21 6 -17 6 4 9 3 8 -2 -3 -8 10 -27 61 -96 l23 -32 -28 32 c-67 75
-83 101 -79 121 2 12 0 24 -6 27 -5 4 -9 11 -9 18 0 6 6 2 14 -8 8 -11 12 -30
10 -43z m344 -15 c12 -11 18 -25 15 -35 -5 -11 -3 -13 7 -7 8 5 11 4 6 -3 -6
-10 8 -25 27 -28 4 -1 9 -2 12 -3 3 0 1 -10 -5 -21 -9 -17 -4 -28 31 -70 22
-27 38 -53 35 -58 -8 -13 4 -43 15 -37 9 6 3 -34 -7 -44 -3 -3 -5 1 -3 9 2 8
-2 25 -9 38 -7 12 -10 27 -6 33 3 6 -13 33 -36 60 -22 27 -38 54 -34 60 3 6
-6 23 -20 38 -15 16 -26 32 -24 37 2 5 -1 10 -7 12 -19 4 -12 -23 13 -50 13
-15 21 -32 17 -38 -4 -7 7 -27 26 -48 l34 -37 -38 35 c-22 20 -35 40 -32 49 3
8 -4 25 -17 38 -24 26 -31 50 -16 59 5 3 2 14 -8 25 -9 10 -19 17 -23 15 -3
-2 -7 7 -8 21 l-1 25 18 -28 c9 -16 26 -37 38 -47z m43 56 c0 -4 17 -26 37
-48 l37 -40 -41 38 c-22 21 -41 44 -41 52 0 8 2 13 5 11 2 -2 3 -8 3 -13z
m-683 -47 c10 14 46 12 55 -3 5 -8 12 -11 17 -8 15 9 22 -15 10 -30 -13 -15
-6 -50 7 -42 5 3 7 -25 7 -61 -1 -37 3 -76 9 -87 7 -16 7 -18 -3 -8 -14 13
-20 46 -22 110 0 23 -5 40 -9 37 -12 -7 -11 33 0 55 7 13 6 18 -4 18 -7 0 -11
-7 -7 -15 4 -10 1 -13 -7 -8 -7 5 -10 15 -7 23 3 8 1 11 -4 8 -6 -3 -10 0 -10
7 0 8 -5 6 -11 -5 -6 -10 -8 -21 -5 -24 3 -4 1 -12 -5 -19 -7 -9 -7 -19 1 -34
6 -12 9 -24 6 -27 -3 -3 -9 5 -14 17 l-9 24 -5 -22 c-4 -12 -2 -20 3 -16 5 3
6 -3 3 -13 -5 -15 -4 -16 5 -3 9 12 10 7 7 -20 -2 -19 -7 -44 -12 -55 -4 -11
-8 -50 -8 -87 0 -36 -3 -65 -6 -63 -3 2 -6 -7 -6 -18 -6 -91 -12 -136 -19
-147 -5 -8 -4 -11 1 -7 11 6 12 -3 14 -111 1 -44 5 -84 9 -91 5 -7 6 18 5 56
-2 43 0 61 5 48 4 -11 6 -27 4 -35 -4 -13 -3 -13 5 -1 6 8 7 23 2 36 -5 12 -4
28 0 35 5 8 5 21 1 29 -4 9 -6 32 -4 51 2 19 3 44 3 55 1 16 3 17 11 5 7 -11
8 -8 5 13 -3 15 -1 25 4 22 4 -3 6 5 2 17 -5 21 -4 22 11 9 19 -15 18 -16 19
56 1 29 4 50 9 48 4 -3 5 8 3 24 -3 16 -1 32 5 35 5 4 8 -13 5 -44 -2 -27 1
-52 6 -55 6 -4 6 -14 -2 -28 -6 -12 -11 -23 -10 -24 7 -10 0 -33 -9 -31 -6 2
-14 -4 -19 -12 -21 -39 -34 -77 -32 -95 8 -120 7 -164 -2 -162 -13 3 -14 -66
-1 -75 6 -4 1 -8 -10 -8 -17 0 -17 -2 -5 -10 13 -8 12 -10 -4 -10 -12 0 -16 5
-12 16 3 8 2 24 -4 34 -5 10 -12 56 -14 102 -2 45 -6 92 -8 103 -3 11 0 28 5
37 8 12 7 24 -1 42 -8 17 -8 27 -1 32 6 3 8 12 5 19 -2 7 -2 16 2 19 14 15 29
196 21 261 -2 11 3 32 10 47 14 27 13 31 -14 77 -7 14 -11 29 -7 35 3 6 10 -5
15 -24 5 -18 12 -29 15 -24z m432 -1 c5 3 11 1 14 -4 7 -11 -13 -9 -31 2 -7 5
-18 18 -23 30 -8 16 -5 14 10 -6 12 -15 26 -25 30 -22z m568 11 c-1 -14 -5
-23 -9 -20 -7 4 0 44 7 44 2 0 3 -11 2 -24z m-440 -21 c-3 -3 -9 2 -12 12 -6
14 -5 15 5 6 7 -7 10 -15 7 -18z m19 -7 c-3 -8 -6 -5 -6 6 -1 11 2 17 5 13 3
-3 4 -12 1 -19z m26 -3 c-7 -21 -12 -19 -10 4 0 11 5 18 9 15 4 -3 5 -11 1
-19z m-553 -52 c0 -12 5 -25 10 -28 6 -4 9 -22 8 -40 -1 -19 1 -37 5 -41 4 -4
0 -18 -9 -32 -8 -13 -13 -30 -10 -37 3 -8 1 -17 -3 -19 -5 -3 -8 -31 -7 -61 1
-45 -1 -52 -11 -39 -7 9 -9 25 -4 38 4 11 7 49 7 84 -1 46 2 59 10 48 8 -11
10 0 10 42 0 31 -2 48 -4 38 -3 -15 -6 -16 -14 -5 -8 11 -9 10 -4 -3 3 -10 1
-20 -5 -23 -5 -4 -9 -12 -7 -18 1 -7 -1 -21 -4 -32 -13 -39 -19 -101 -8 -85 7
10 8 -3 5 -45 -4 -56 -11 -100 -16 -100 -1 0 -3 -11 -6 -25 -8 -53 -9 -86 -2
-101 4 -8 3 -22 -2 -30 -6 -10 -9 -6 -10 16 -5 84 -4 143 4 170 5 17 10 67 12
112 1 46 8 89 14 96 6 8 9 16 6 19 -3 2 0 19 5 37 6 22 6 40 -1 53 -7 14 -8
23 -1 30 6 6 8 18 5 27 -4 11 -1 10 10 -4 9 -11 17 -30 17 -42z m896 -2 c-3
-4 3 -16 13 -25 13 -12 19 -30 18 -54 -1 -21 3 -36 9 -35 6 1 11 -5 11 -13 0
-12 -3 -12 -17 1 -10 9 -15 27 -14 49 2 23 -3 39 -16 51 -11 10 -16 24 -13 33
5 11 3 13 -7 7 -8 -5 -11 -4 -6 3 3 6 2 13 -4 17 -5 3 -10 11 -10 17 0 6 9 -1
21 -16 11 -14 18 -30 15 -35z m-496 29 c-6 -10 -3 -22 8 -35 17 -20 17 -20 -5
-1 -13 10 -20 23 -16 28 3 6 -1 14 -8 19 -10 6 -8 8 8 6 16 -1 20 -5 13 -17z
m426 -12 c9 -18 26 -44 38 -58 l21 -25 -26 23 c-14 12 -29 19 -34 15 -4 -5 -5
-3 -1 4 4 7 0 26 -9 43 -8 16 -13 30 -11 30 3 0 13 -15 22 -32z m-284 8 c6 4
6 -2 -1 -14 -14 -27 -14 -35 2 -26 6 4 9 4 5 -1 -9 -10 31 -67 42 -60 8 5 80
-69 80 -82 0 -4 -16 12 -36 35 -20 23 -40 40 -44 37 -15 -9 -65 66 -66 99 -1
17 1 25 3 18 3 -6 9 -9 15 -6z m309 -1 c0 -6 11 -24 25 -42 13 -17 24 -38 23
-45 0 -9 -2 -8 -6 2 -4 8 -17 30 -31 48 -13 17 -20 32 -16 32 5 0 2 5 -6 11
-10 7 -11 9 -2 7 8 -2 13 -8 13 -13z m-344 -27 c-3 -8 -6 -5 -6 6 -1 11 2 17
5 13 3 -3 4 -12 1 -19z m186 -2 c6 7 40 -42 43 -63 2 -8 -1 -12 -4 -8 -4 4 -7
10 -7 13 -1 4 -7 18 -14 31 -13 24 -14 24 -27 6 -17 -23 -18 -39 -2 -29 6 4 8
3 4 -4 -6 -11 10 -26 29 -27 6 0 9 -9 7 -19 -2 -12 1 -16 10 -10 7 4 10 4 6
-1 -4 -4 -3 -15 2 -24 5 -11 5 -23 -2 -32 -8 -12 -9 -11 -5 2 6 18 -11 48 -51
91 -19 21 -22 30 -14 45 8 13 6 23 -6 38 -17 20 -17 20 4 2 11 -9 23 -14 27
-11z m-106 -36 c-1 -10 -5 -17 -9 -14 -4 3 -4 12 -1 21 5 12 3 14 -8 8 -8 -4
-11 -5 -7 0 4 4 2 15 -4 24 -9 11 -5 10 9 -2 12 -11 21 -27 20 -37z m367 34
c3 -8 2 -12 -4 -9 -6 3 -10 10 -10 16 0 14 7 11 14 -7z m-543 -36 c15 -28 5
-21 -21 15 -15 20 -17 27 -6 18 9 -8 22 -23 27 -33z m-184 -31 c7 2 21 -9 32
-23 11 -14 23 -25 28 -24 11 0 12 -35 1 -52 -5 -8 -6 -1 -3 20 3 19 2 31 -4
28 -5 -3 -16 6 -25 19 -9 14 -21 23 -26 20 -11 -7 -50 43 -50 64 0 9 8 0 18
-19 10 -19 23 -34 29 -33z m363 -32 c9 6 60 -51 60 -66 0 -6 4 -8 8 -5 5 3 9
-1 9 -9 0 -22 -4 -19 -32 25 -14 23 -29 39 -34 36 -8 -5 -65 51 -91 89 -7 11
6 -1 29 -28 24 -26 46 -45 51 -42z m-259 23 c19 -25 26 -44 28 -71 1 -5 7 -5
14 -1 6 4 9 4 5 -1 -4 -4 -2 -15 4 -23 13 -15 21 -49 10 -37 -4 4 -7 11 -7 16
0 5 -3 9 -7 9 -9 0 -10 -9 -2 -33 3 -9 9 -15 14 -12 5 3 7 -6 4 -21 -3 -16 -1
-23 6 -19 6 3 7 0 4 -10 -8 -19 -17 -12 -19 13 -1 9 -9 31 -18 49 -11 21 -13
34 -6 38 7 5 7 11 -1 20 -6 7 -13 23 -15 36 -3 12 -19 41 -37 63 -18 23 -24
35 -15 27 10 -8 27 -27 38 -43z m107 21 c-3 -8 -7 -3 -11 10 -4 17 -3 21 5 13
5 -5 8 -16 6 -23z m432 -14 c0 4 6 2 13 -4 8 -6 18 -7 23 -3 4 4 3 0 -3 -8 -9
-12 -6 -21 12 -42 13 -15 25 -25 27 -23 2 3 4 -7 4 -20 0 -13 -2 -22 -5 -19
-4 3 -6 9 -6 14 0 5 -11 23 -25 42 -14 18 -25 38 -25 43 0 6 -6 10 -12 10 -7
0 -20 11 -29 25 l-16 25 21 -24 c12 -13 21 -20 21 -16z m-470 -7 c-1 -13 -1
-26 0 -30 2 -7 4 -22 9 -59 0 -5 5 -8 10 -4 12 7 34 -32 26 -45 -3 -5 -1 -18
4 -27 6 -10 11 -14 11 -8 0 17 80 -69 80 -86 0 -10 5 -21 10 -24 6 -4 8 -10 5
-15 -3 -5 -1 -12 5 -15 8 -5 7 -11 -1 -21 -10 -12 -8 -19 9 -37 16 -17 18 -26
11 -37 -9 -13 -10 -12 -6 2 3 9 -1 22 -9 29 -15 13 -48 67 -49 82 0 4 -7 12
-15 17 -8 5 -10 10 -4 10 12 0 40 -29 38 -39 -3 -14 9 -30 17 -25 5 3 6 11 2
17 -4 7 -8 14 -9 17 0 3 -4 13 -7 23 -4 9 -10 25 -13 35 -5 16 -6 16 -18 0
-12 -16 -14 -15 -25 10 -13 26 -13 26 -28 7 -9 -13 -13 -15 -11 -5 1 8 -2 15
-7 15 -6 0 -9 -4 -7 -8 1 -5 -2 -6 -8 -2 -8 5 -8 11 0 20 8 9 8 15 0 20 -5 3
-10 11 -10 17 0 6 9 -1 21 -16 11 -14 24 -24 29 -21 5 3 15 -4 23 -16 8 -11
17 -16 21 -11 6 11 -38 55 -46 46 -9 -8 -30 34 -23 45 7 13 -5 42 -16 36 -11
-7 -27 25 -24 47 2 10 0 20 -5 23 -7 5 -2 55 7 55 2 0 4 -10 3 -22z m-403 -9
c2 -16 -1 -19 -9 -11 -5 5 -7 15 -4 21 10 15 12 14 13 -10z m372 -13 c-3 -3
-11 5 -18 17 -13 21 -12 21 5 5 10 -10 16 -20 13 -22z m66 -24 c-2 -13 -7 -27
-10 -30 -3 -4 -3 8 0 27 3 18 2 30 -3 27 -4 -2 -8 4 -8 15 0 19 1 19 13 3 7
-10 11 -29 8 -42z m43 39 c1 -1 -2 -10 -7 -20 -8 -14 -7 -22 4 -31 8 -7 13
-16 10 -20 -3 -5 -1 -11 5 -15 5 -3 10 -12 10 -18 -1 -11 -23 19 -26 36 -1 4
-2 10 -3 13 0 3 -5 2 -11 -1 -6 -4 -4 -17 5 -36 12 -22 13 -34 5 -47 -11 -16
-11 -16 -6 1 3 10 -1 31 -9 46 -8 16 -11 31 -8 35 12 11 12 40 2 52 -9 11 0
12 29 5z m-293 -41 c2 -12 1 -20 -2 -16 -4 4 -8 16 -10 28 -4 28 6 18 12 -12z
m58 3 c-4 -10 -2 -14 5 -9 6 3 13 2 16 -3 4 -5 -2 -8 -11 -7 -10 2 -18 12 -19
24 -1 12 2 19 7 16 4 -2 5 -12 2 -21z m659 -41 c-2 -9 1 -11 10 -6 7 4 10 3 5
-1 -9 -10 22 -47 34 -39 5 3 6 -2 3 -10 -4 -11 -13 -7 -36 19 -16 19 -27 38
-24 43 3 5 -3 17 -14 27 -11 10 -20 23 -20 28 0 5 10 -3 22 -19 13 -16 22 -35
20 -42z m-28 6 c-4 -5 5 -22 18 -36 14 -15 28 -35 31 -45 4 -10 10 -16 15 -13
4 2 8 -6 8 -19 0 -14 -2 -22 -5 -19 -4 3 -6 10 -6 15 0 5 -4 8 -10 7 -5 -2 -9
-5 -8 -8 13 -37 13 -42 -1 -20 -8 14 -11 29 -6 34 12 12 2 36 -28 68 -14 15
-22 31 -19 35 4 3 -1 16 -10 27 -18 21 -18 21 4 2 13 -10 20 -23 17 -28z
m-894 -4 c0 -19 -4 -33 -8 -30 -8 5 -4 66 4 66 2 0 4 -16 4 -36z m708 5 c-3
-8 -7 -3 -11 10 -4 17 -3 21 5 13 5 -5 8 -16 6 -23z m85 8 c10 -16 12 -28 6
-38 -8 -12 -9 -12 -7 1 1 8 -3 25 -10 38 -17 29 -9 28 11 -1z m52 -19 c3 4 5
2 3 -4 -4 -13 58 -85 67 -76 3 3 3 -2 -1 -12 -7 -18 -7 -18 -17 0 -18 34 -50
64 -61 57 -6 -3 -8 -3 -4 2 4 4 -2 22 -13 39 -19 28 -19 29 -1 9 11 -12 23
-19 27 -15z m-657 9 c-6 -8 24 -37 33 -31 5 3 8 0 7 -8 -2 -7 2 -12 9 -11 8 2
10 -4 6 -14 -5 -12 -3 -14 7 -8 8 5 11 4 7 -2 -4 -6 0 -16 8 -23 8 -7 12 -16
9 -21 -5 -8 10 -13 29 -10 5 1 5 -3 2 -9 -4 -7 3 -22 16 -36 13 -13 24 -31 25
-40 1 -9 10 -24 18 -33 14 -15 14 -18 2 -18 -8 0 -14 3 -13 6 1 3 -5 17 -13
31 -7 14 -11 25 -9 26 2 0 -9 15 -24 33 -15 19 -31 31 -34 27 -4 -3 6 -19 20
-34 15 -16 27 -32 27 -36 0 -4 -12 7 -27 25 -16 18 -28 42 -28 54 0 24 -39 78
-50 67 -3 -4 -5 0 -3 8 2 8 -3 14 -9 13 -7 -2 -12 0 -12 5 1 4 0 9 -1 12 -5
14 -8 41 -3 37 2 -3 3 -7 1 -10z m77 -17 c9 -16 13 -30 10 -30 -4 0 -3 -6 2
-12 10 -17 14 -42 5 -33 -4 4 -6 10 -5 13 1 4 -3 13 -9 20 -6 6 -8 12 -4 12 4
0 0 14 -9 30 -9 17 -13 30 -11 30 3 0 12 -13 21 -30z m427 -34 c4 3 5 -2 4
-13 -2 -10 7 -31 20 -46 22 -27 27 -68 9 -85 -3 -4 -4 8 -1 25 5 24 0 38 -20
62 -14 17 -22 31 -18 31 4 0 -8 17 -27 37 -30 33 -30 35 -3 10 17 -15 33 -25
36 -21z m-390 7 c11 -28 14 -37 16 -61 1 -7 6 -11 11 -7 6 3 8 -6 5 -21 -3
-19 -1 -24 8 -18 7 4 10 3 5 -1 -4 -5 0 -16 9 -26 8 -9 16 -23 18 -31 1 -7 6
-20 11 -28 8 -13 7 -13 -8 -1 -9 7 -15 17 -12 21 3 5 -6 22 -20 38 -14 17 -24
34 -23 39 1 4 -4 19 -11 31 -7 13 -10 26 -7 29 3 4 2 11 -3 17 -11 15 -22 46
-15 46 2 0 10 -12 16 -27z m424 -18 c0 -5 2 -16 2 -23 1 -7 6 -11 11 -7 5 3
12 1 15 -4 4 -5 -1 -8 -10 -7 -19 3 -38 32 -29 45 3 5 1 12 -5 16 -5 3 -10 12
-10 18 1 13 23 -21 26 -38z m170 13 l29 -33 -32 29 c-31 28 -38 36 -30 36 2 0
16 -15 33 -32z m-563 -1 c10 -16 12 -28 6 -38 -8 -12 -9 -12 -7 1 1 8 -3 25
-10 38 -17 29 -9 28 11 -1z m104 -9 c-3 -8 -6 -5 -6 6 -1 11 2 17 5 13 3 -3 4
-12 1 -19z m356 4 c3 1 15 -9 27 -24 12 -16 19 -28 15 -28 -3 0 0 -10 7 -22 7
-13 11 -27 10 -32 -4 -13 19 -36 30 -30 6 4 5 -3 -1 -15 -7 -11 -9 -21 -6 -21
12 0 20 6 17 13 -1 5 2 6 8 2 6 -4 4 -15 -6 -31 -15 -22 -13 -28 8 -25 4 0 5
-6 1 -14 -5 -14 -7 -13 -18 2 -7 9 -11 23 -8 29 2 7 -1 15 -6 19 -6 3 -9 11
-5 16 3 6 -1 18 -10 28 -9 10 -16 22 -14 27 1 5 -4 20 -12 34 -7 14 -12 25 -9
25 2 0 -4 11 -14 25 -10 14 -21 24 -24 22 -4 -2 -9 2 -11 10 -3 11 -2 11 6 0
5 -8 12 -12 15 -10z m-277 -7 c-3 -9 9 -32 31 -58 l36 -42 -42 42 c-26 27 -39
48 -35 57 3 9 8 16 11 16 3 0 3 -7 -1 -15z m-319 -17 c-3 -8 -6 -5 -6 6 -1 11
2 17 5 13 3 -3 4 -12 1 -19z m679 -20 c15 -24 29 -36 37 -32 7 4 9 3 4 -1 -4
-5 2 -19 14 -31 16 -18 19 -26 10 -42 -8 -15 -7 -23 4 -32 7 -6 11 -19 8 -27
-4 -10 -2 -14 4 -10 6 4 9 -5 8 -21 -1 -15 5 -37 13 -49 10 -17 11 -26 2 -40
-11 -17 -11 -17 -6 0 3 10 0 28 -6 40 -7 12 -13 29 -13 37 0 8 -4 21 -8 28 -5
6 -6 16 -3 21 3 5 -1 14 -9 21 -11 9 -12 17 -5 30 13 24 13 33 0 25 -6 -4 -10
-3 -9 2 3 17 -1 24 -11 18 -7 -4 -6 -14 1 -28 10 -21 9 -21 -5 -3 -10 12 -12
24 -7 30 10 12 -33 69 -43 58 -4 -3 -4 2 0 12 5 13 4 17 -3 13 -6 -4 -16 -1
-22 6 -8 10 -7 14 5 14 9 0 27 -18 40 -39z m-631 -30 c-5 -22 62 -111 77 -102
4 3 5 -2 2 -10 -4 -11 -16 -2 -45 35 -22 27 -45 47 -50 43 -10 -6 -9 -3 13 37
1 4 -6 17 -17 30 l-20 24 22 -18 c13 -11 20 -27 18 -39z m351 20 l29 -33 -32
29 c-31 28 -38 36 -30 36 2 0 16 -15 33 -32z m213 -2 c-3 -3 -11 5 -18 17 -13
21 -12 21 5 5 10 -10 16 -20 13 -22z m2 -21 c5 3 6 -1 3 -9 -5 -13 -9 -12 -25
8 -10 13 -19 28 -19 32 0 5 7 -2 16 -14 8 -12 20 -20 25 -17z m-435 -33 c1 -6
-2 -10 -7 -6 -5 3 -7 9 -4 14 3 5 1 11 -5 15 -5 3 -10 12 -10 18 1 14 23 -22
26 -41z m403 18 c10 -16 21 -28 24 -25 4 3 5 2 2 -2 -3 -3 3 -16 12 -27 14
-15 14 -18 2 -8 -9 6 -19 8 -23 4 -4 -4 -7 -2 -5 3 4 17 -23 65 -34 58 -6 -3
-7 -1 -3 5 3 5 0 13 -6 15 -10 4 -10 6 0 6 7 1 20 -12 31 -29z m104 -16 c-6
-17 -16 -19 -10 -1 2 6 -3 21 -12 32 -16 20 -16 20 6 2 12 -11 19 -25 16 -33z
m-670 22 c9 5 8 3 0 -6 -10 -10 -8 -19 7 -40 13 -18 16 -30 9 -41 -8 -12 -9
-12 -7 1 1 8 -4 26 -12 40 -8 14 -15 34 -16 45 -2 11 0 14 2 7 3 -6 11 -9 17
-6z m269 -103 c28 -28 30 -35 20 -55 l-12 -23 6 24 c4 17 -2 31 -24 55 -33 34
-52 68 -52 88 1 7 8 -3 16 -22 8 -19 29 -49 46 -67z m158 71 c0 5 7 3 15 -4 8
-7 13 -16 10 -20 -3 -5 -1 -11 5 -15 6 -4 8 -10 5 -14 -2 -5 4 -16 15 -26 11
-10 17 -22 14 -27 -7 -12 16 -39 27 -32 5 3 6 -2 3 -10 -5 -13 -10 -11 -26 10
-11 14 -17 28 -14 31 3 4 -4 17 -16 30 -12 13 -18 23 -14 23 5 0 4 6 -2 13 -6
6 -11 15 -11 20 -1 4 -4 6 -8 5 -5 -2 -6 -7 -4 -13 6 -16 5 -38 -4 -59 -6 -15
-5 -17 5 -11 8 5 11 4 7 -2 -7 -11 30 -51 41 -45 4 2 7 -1 9 -7 1 -7 0 -8 -4
-1 -2 5 -8 8 -12 5 -5 -2 -20 9 -35 24 -24 25 -26 32 -17 50 9 15 9 27 1 41
-6 11 -8 20 -5 20 3 0 1 10 -5 23 -11 21 -10 21 4 3 9 -11 16 -16 16 -12z m67
7 c0 -11 -5 -18 -9 -15 -4 3 -5 11 -1 19 7 21 12 19 10 -4z m260 -3 c-3 -8 -6
-5 -6 6 -1 11 2 17 5 13 3 -3 4 -12 1 -19z m-488 -3 c8 0 16 -7 18 -15 4 -13
3 -13 -6 0 -12 18 -24 9 -15 -14 3 -9 11 -13 18 -9 6 3 8 3 4 -2 -10 -10 11
-37 22 -30 5 3 11 1 14 -4 9 -13 -19 -8 -37 8 -21 16 -61 85 -45 74 7 -4 19
-8 27 -8z m296 -25 c0 -3 4 -11 8 -18 5 -7 5 -11 0 -10 -4 2 -9 -1 -10 -7 -2
-5 1 -10 7 -10 5 0 14 -5 20 -11 8 -8 6 -11 -4 -11 -9 0 -26 11 -38 24 -13 14
-17 23 -9 21 15 -3 24 29 10 38 -5 3 -9 11 -9 17 1 11 24 -21 25 -33z m-658 8
c-3 -8 -6 -5 -6 6 -1 11 2 17 5 13 3 -3 4 -12 1 -19z m486 -3 c4 3 5 2 2 -2
-3 -3 0 -12 6 -19 7 -9 7 -19 -1 -34 -10 -19 -8 -27 22 -58 18 -20 26 -31 17
-24 -10 8 -19 8 -27 2 -9 -7 -9 -7 -2 2 7 8 3 19 -11 34 -17 18 -19 26 -10 42
14 26 14 35 1 27 -6 -4 -9 -3 -8 2 1 4 -3 19 -10 33 -12 22 -11 23 1 8 8 -10
17 -16 20 -13z m-337 -22 c25 -33 43 -110 23 -98 -4 3 -6 17 -3 31 3 16 1 23
-6 19 -6 -4 -7 1 -3 11 5 13 3 15 -8 9 -8 -4 -11 -5 -7 0 4 4 -2 21 -13 36
-30 42 -16 35 17 -8z m583 -2 c-2 -6 -10 2 -17 17 -11 25 -11 25 4 10 9 -9 15
-21 13 -27z m-143 2 c-4 -9 1 -25 13 -37 15 -16 17 -25 10 -36 -9 -13 -10 -13
-6 0 2 8 -4 24 -15 36 -16 18 -17 54 -1 54 3 0 2 -7 -1 -17z m53 -46 c16 -18
20 -27 11 -25 -10 2 -14 -4 -12 -17 2 -16 1 -17 -7 -5 -6 9 -6 19 0 26 6 7 2
17 -11 29 -11 10 -20 25 -19 34 0 14 1 14 6 1 3 -8 17 -28 32 -43z m205 37 c3
-8 2 -12 -4 -9 -6 3 -10 10 -10 16 0 14 7 11 14 -7z m-144 -9 c5 3 11 1 14 -4
4 -5 -2 -8 -11 -7 -9 2 -18 8 -19 15 -1 6 0 7 3 1 2 -5 9 -8 13 -5z m-576 -17
c-5 -7 -9 -19 -10 -26 -2 -8 -6 -17 -10 -20 -4 -4 -4 0 -2 8 3 8 -2 24 -11 35
-15 18 -15 19 1 6 15 -11 19 -11 24 3 4 9 9 15 11 12 3 -3 1 -11 -3 -18z m222
-10 l29 -33 -32 29 c-31 28 -38 36 -30 36 2 0 16 -15 33 -32z m391 10 c-5 -15
31 -70 42 -64 4 3 8 -2 8 -11 0 -11 -11 -4 -33 21 -18 21 -30 44 -27 52 6 17
16 19 10 2z m72 -11 c0 -9 -2 -8 -6 1 -2 6 -10 9 -15 6 -7 -4 -8 -2 -4 5 9 13
26 5 25 -12z m-452 -58 c2 -24 -7 -20 -11 5 -1 9 -13 28 -27 43 l-24 28 30
-27 c17 -15 31 -37 32 -49z m199 35 c1 -9 -1 -13 -4 -9 -4 4 -7 10 -7 13 0 4
-4 14 -9 22 -7 12 -6 13 4 3 8 -7 15 -20 16 -29z m-412 10 c3 -8 2 -12 -4 -9
-6 3 -10 10 -10 16 0 14 7 11 14 -7z m600 -44 l21 -25 -26 23 c-14 12 -27 20
-30 18 -2 -2 -5 7 -6 22 -1 24 0 24 9 7 6 -11 20 -31 32 -45z m-306 27 c16
-17 18 -26 11 -37 -9 -13 -10 -12 -5 2 3 11 -4 25 -21 38 -14 11 -21 20 -16
20 5 0 19 -10 31 -23z m-201 -9 c-3 -8 -6 -5 -6 6 -1 11 2 17 5 13 3 -3 4 -12
1 -19z m29 -4 c1 -9 0 -13 -4 -10 -3 4 -7 14 -8 22 -1 9 0 13 4 10 3 -4 7 -14
8 -22z m421 11 c-6 -13 8 -29 25 -30 3 0 9 -3 13 -7 4 -3 0 -5 -9 -4 -30 4
-61 56 -34 56 6 0 8 -7 5 -15z m129 -20 c0 -13 -3 -22 -8 -19 -4 3 -6 9 -3 14
3 5 1 11 -5 15 -6 4 -8 11 -4 16 9 15 18 2 20 -26z m-390 -11 c1 -9 -1 -13 -4
-9 -4 4 -7 10 -7 13 0 4 -4 14 -9 22 -7 12 -6 13 4 3 8 -7 15 -20 16 -29z
m-266 1 c14 -19 14 -19 -2 -6 -10 7 -18 18 -18 24 0 6 1 8 3 6 1 -2 9 -13 17
-24z m37 -7 c-3 -7 -5 -2 -5 12 0 14 2 19 5 13 2 -7 2 -19 0 -25z m90 10 c-3
-8 -6 -5 -6 6 -1 11 2 17 5 13 3 -3 4 -12 1 -19z m383 -3 c14 -19 14 -19 -2
-6 -10 7 -18 18 -18 24 0 6 1 8 3 6 1 -2 9 -13 17 -24z m-563 -7 c-3 -8 -6 -5
-6 6 -1 11 2 17 5 13 3 -3 4 -12 1 -19z m118 13 c3 -5 2 -12 -3 -15 -5 -3 -9
1 -9 9 0 17 3 19 12 6z m691 -46 c-5 -24 -35 -86 -36 -72 0 5 5 17 11 28 17
33 19 61 6 78 -11 14 -10 14 5 2 11 -8 16 -22 14 -36z m29 7 c-2 -26 -34 -97
-35 -79 0 5 5 18 12 30 6 12 12 33 14 47 2 29 3 30 8 30 2 0 2 -13 1 -28z
m-57 -7 c-3 -3 -9 2 -12 12 -6 14 -5 15 5 6 7 -7 10 -15 7 -18z m-5 -30 c-3
-9 -8 -14 -10 -11 -3 3 -2 9 2 15 9 16 15 13 8 -4z m70 -35 c3 -11 1 -18 -4
-14 -5 3 -9 12 -9 20 0 20 7 17 13 -6z m18 -38 c-14 -27 -14 -35 2 -26 6 4 9
4 5 -1 -4 -4 -3 -14 3 -21 7 -9 6 -14 -3 -20 -7 -4 -10 -3 -5 1 4 5 0 16 -8
25 -13 14 -14 22 -4 44 7 14 14 24 16 22 3 -2 0 -13 -6 -24z m72 14 c-6 -23
-9 -24 -20 -7 -10 16 -9 19 5 17 9 -2 16 -6 15 -10z m-18 -45 c-3 -2 1 -13 7
-25 8 -16 8 -18 -1 -10 -7 6 -13 18 -15 25 -1 8 -8 25 -15 39 l-12 25 20 -25
c11 -14 18 -26 16 -29z m43 -38 c-3 -14 14 -43 22 -38 5 3 7 -3 5 -12 -1 -10
5 -27 14 -38 16 -20 16 -20 -7 -1 -12 11 -20 21 -17 24 2 3 -4 17 -15 32 -11
15 -17 30 -13 34 8 8 13 8 11 -1z m29 -8 c0 -8 -4 -12 -9 -9 -5 3 -6 10 -3 15
9 13 12 11 12 -6z m49 -26 c1 -17 -1 -28 -4 -25 -3 3 -6 19 -7 36 -1 17 1 28
4 24 3 -3 6 -19 7 -35z m-29 9 c-3 -8 -6 -5 -6 6 -1 11 2 17 5 13 3 -3 4 -12
1 -19z m24 -53 c3 3 6 -2 6 -12 0 -13 -4 -11 -19 7 -10 12 -18 27 -18 34 1 6
6 1 13 -12 7 -12 15 -20 18 -17z m-55 -17 c3 -4 -1 -5 -10 -4 -8 1 -18 5 -22
8 -3 4 1 5 10 4 8 -1 18 -5 22 -8z m153 -22 c-3 -3 -11 5 -18 17 -13 21 -12
21 5 5 10 -10 16 -20 13 -22z"/>
<path d="M156 1521 c-4 -5 -2 -12 3 -15 5 -4 12 -2 15 3 4 5 2 12 -3 15 -5 4
-12 2 -15 -3z"/>
<path d="M275 1519 c-4 -6 -5 -12 -2 -15 2 -3 7 2 10 11 7 17 1 20 -8 4z"/>
<path d="M213 1430 c1 -14 12 -40 25 -57 13 -18 20 -33 16 -33 -4 0 -1 -8 7
-17 29 -36 40 -65 33 -86 -6 -22 -6 -22 9 -2 10 12 12 24 6 31 -5 6 -5 15 -1
19 4 5 1 5 -5 1 -7 -4 -13 -2 -13 4 0 7 6 10 13 8 6 -3 12 -10 12 -15 0 -6 3
-15 7 -19 4 -4 2 -14 -4 -22 -10 -11 -8 -18 10 -33 25 -20 60 -16 43 5 -6 7
-8 24 -6 38 4 20 -2 31 -31 53 -24 19 -34 33 -31 46 3 10 -5 32 -18 49 -18 25
-24 28 -29 14 -3 -9 3 -29 15 -45 11 -16 17 -29 12 -29 -4 0 1 -7 11 -15 11
-8 15 -15 9 -15 -11 0 -31 20 -32 33 -1 19 -36 65 -45 60 -5 -4 -7 0 -4 9 4 8
2 21 -3 29 -6 10 -8 7 -6 -11z m133 -186 c-4 -9 -1 -24 6 -33 11 -15 10 -15
-5 0 -16 13 -15 49 0 49 3 0 2 -7 -1 -16z"/>
<path d="M323 1445 c-3 -9 -3 -18 -1 -21 3 -3 8 4 11 16 6 23 -1 27 -10 5z"/>
<path d="M1344 1503 c3 -6 2 -14 -4 -18 -5 -3 -10 -12 -10 -18 0 -7 4 -6 11 3
7 11 9 6 6 -20 -2 -19 -2 -26 1 -15 l4 20 8 -20 c6 -14 7 -9 5 18 -1 21 -8 44
-15 50 -10 9 -11 9 -6 0z"/>
<path d="M52 1395 c0 -16 2 -22 5 -12 2 9 2 23 0 30 -3 6 -5 -1 -5 -18z"/>
<path d="M364 1388 c22 -33 22 -33 22 -8 0 10 -2 17 -5 15 -2 -3 -11 1 -19 8
-11 9 -11 4 2 -15z"/>
<path d="M76 981 c-3 -4 1 -17 10 -27 14 -18 15 -18 5 2 -6 12 -7 24 -4 28 3
3 4 6 0 6 -3 0 -8 -4 -11 -9z"/>
<path d="M74 196 c-3 -14 -2 -31 3 -40 6 -11 8 -3 8 24 0 46 -2 50 -11 16z"/>
<path d="M453 1341 c0 -11 5 -18 9 -15 4 3 5 11 1 19 -7 21 -12 19 -10 -4z"/>
<path d="M516 1059 c-13 -19 -13 -25 -2 -38 7 -9 11 -21 9 -28 -4 -12 30 -36
41 -28 3 3 4 2 1 -2 -3 -3 1 -13 7 -22 10 -12 8 -12 -8 2 -29 24 -41 21 -18
-5 11 -13 31 -40 44 -60 13 -20 28 -34 32 -32 5 3 -3 20 -16 37 -18 24 -22 36
-15 49 7 12 3 27 -16 54 -17 26 -22 41 -15 49 7 8 4 17 -9 29 -18 16 -20 16
-35 -5z m27 -25 c-4 -12 -8 -13 -14 -3 -9 15 -2 32 11 24 5 -3 6 -13 3 -21z"/>
<path d="M641 1294 c0 -11 3 -14 6 -6 3 7 2 16 -1 19 -3 4 -6 -2 -5 -13z"/>
<path d="M826 1235 c8 -37 14 -45 14 -19 0 10 -5 26 -10 34 -8 11 -9 7 -4 -15z"/>
<path d="M854 1246 c-4 -10 -2 -22 4 -28 8 -8 13 -7 18 6 4 10 2 22 -4 28 -8
8 -13 7 -18 -6z m13 -18 c-3 -8 -6 -5 -6 6 -1 11 2 17 5 13 3 -3 4 -12 1 -19z"/>
<path d="M685 1219 c-4 -5 -4 -13 -1 -16 3 -4 6 0 6 8 0 11 2 11 10 -1 6 -9
10 -10 10 -3 0 17 -17 25 -25 12z"/>
<path d="M1186 1321 c-4 -5 -2 -12 3 -15 5 -4 12 -2 15 3 4 5 2 12 -3 15 -5 4
-12 2 -15 -3z"/>
<path d="M1111 1231 c-6 -11 -7 -22 -2 -25 12 -8 20 4 14 22 -3 13 -1 13 11
-2 12 -15 16 -16 16 -5 1 11 4 10 14 -4 13 -17 14 -17 20 0 4 10 4 14 0 10 -4
-4 -13 -2 -21 4 -7 6 -13 8 -13 4 0 -4 -6 -2 -14 4 -12 10 -17 8 -25 -8z"/>
<path d="M331 474 c0 -11 3 -14 6 -6 3 7 2 16 -1 19 -3 4 -6 -2 -5 -13z"/>
<path d="M294 1015 c-3 -8 -4 -20 -2 -27 3 -7 7 -1 10 15 6 29 1 36 -8 12z"/>
<path d="M263 639 c-2 -23 3 -25 10 -4 4 8 3 16 -1 19 -4 3 -9 -4 -9 -15z"/>
<path d="M227 916 c-3 -8 1 -22 9 -33 14 -17 15 -17 6 2 -5 11 -7 26 -5 33 6
17 -4 15 -10 -2z"/>
<path d="M99 1468 c-10 -32 2 -61 15 -39 4 5 2 12 -4 16 -6 4 -8 11 -5 16 4 5
4 9 1 9 -3 0 -6 -1 -7 -2z"/>
<path d="M1514 33 c2 -16 10 -29 20 -31 17 -4 22 9 9 22 -5 4 -8 13 -8 19 0 5
-5 12 -12 14 -8 3 -11 -6 -9 -24z"/>
</g>
</svg>
